<?xml version="1.0" standalone="no"?>
<!DOCTYPE svg PUBLIC "-//W3C//DTD SVG 1.1//EN" "http://www.w3.org/Graphics/SVG/1.1/DTD/svg11.dtd" >
<svg>
<metadata>
Created by FontForge 20090914 at Thu Aug 18 23:03:08 2011
 By www-data
Copyright (c) 1981, 1982, 1983, 1989 and 1993, Linotype Library GmbH or its affiliated Linotype-Hell companies. All rights reserved.

The digitally encoded machine readable software for producing the Typefaces licensed to you is now the property of Heidelberger Druckmaschinen AG and its licensors, and may not be reproduced, used, displayed, modified, disclosed or transferred without the express written approval of Heidelberger Druckmaschinen AG.

Copyright (c) 1988, 1990, 1993 Adobe Systems Incorporated. All Rights Reserved.
</metadata>
<defs>
<font id="Optima-Regular" horiz-adv-x="556" >
  <font-face 
    font-family="Optima"
    font-weight="400"
    font-stretch="normal"
    units-per-em="1000"
    panose-1="2 0 5 3 6 0 0 2 0 4"
    ascent="800"
    descent="-200"
    x-height="473"
    cap-height="685"
    bbox="-330 -268 1000 919"
    underline-thickness="50"
    underline-position="-75"
    unicode-range="U+0008-U+FB02"
  />
<missing-glyph horiz-adv-x="364" 
d="M33 0v666h265v-666h-265zM66 33h199v600h-199v-600z" />
    <glyph glyph-name="fi" unicode="fi" 
d="M300 669l6 3q0 20 1.5 40t2.5 40q-9 3 -20 3q-29 0 -56.5 -14t-45.5 -32q-20 -20 -36 -49.5t-27.5 -62.5t-17.5 -67t-6 -63q-17 0 -35.5 0.5t-36.5 0.5q1 -5 1.5 -10t0.5 -10t-0.5 -10t-1.5 -10l36 2t36 1q0 -111 -1 -217.5t-8 -215.5q23 2 44 2h21t22 -2
q-3 109 -3.5 216.5t-0.5 216.5q26 0 51.5 -1l51.5 -2q-1 5 -1.5 10t-0.5 10t0.5 10t1.5 10q-26 0 -51.5 -0.5t-51.5 -0.5q-5 31 -8.5 65t-3.5 52q0 20 4.5 38t14.5 31.5t25.5 22t37.5 8.5q31 0 55 -15zM378 647q0 -21 15 -36t36 -15t36 15t15 36t-15 36t-36 15t-36 -15
t-15 -36zM392 286v-104q0 -45 -1.5 -94.5t-6.5 -89.5q23 2 45 2t45 -2q-5 40 -6.5 89.5t-1.5 94.5v104q0 45 1.5 94.5t6.5 92.5q-28 -5 -45 -5t-45 5q5 -43 6.5 -92.5t1.5 -94.5z" />
    <glyph glyph-name="fl" unicode="fl" 
d="M300 669l6 3q0 20 1.5 40t2.5 40q-9 3 -20 3q-29 0 -56.5 -14t-45.5 -32q-20 -20 -36 -49.5t-27.5 -62.5t-17.5 -67t-6 -63q-17 0 -35.5 0.5t-36.5 0.5q1 -5 1.5 -10t0.5 -10t-0.5 -10t-1.5 -10l36 2t36 1q0 -111 -1 -217.5t-8 -215.5q23 2 44 2h21t22 -2
q-3 109 -3.5 216.5t-0.5 216.5q26 0 51.5 -1l51.5 -2q-1 5 -1.5 10t-0.5 10t0.5 10t1.5 10q-26 0 -51.5 -0.5t-51.5 -0.5q-5 31 -8.5 65t-3.5 52q0 20 4.5 38t14.5 31.5t25.5 22t37.5 8.5q31 0 55 -15zM398 464v-181q0 -34 -0.5 -74t-1.5 -79t-2.5 -74t-3.5 -58q23 2 45 2
t45 -2q-2 23 -3.5 58t-2.5 74t-1.5 79t-0.5 74v181q0 34 0.5 74t1.5 79t2.5 74.5t3.5 60.5q-28 -5 -45 -5t-45 5q2 -25 3.5 -60.5t2.5 -74.5t1.5 -79t0.5 -74z" />
    <glyph glyph-name=".notdef" horiz-adv-x="364" 
d="M33 0v666h265v-666h-265zM66 33h199v600h-199v-600z" />
    <glyph glyph-name=".null" horiz-adv-x="0" 
 />
    <glyph glyph-name=".null" horiz-adv-x="0" 
 />
    <glyph glyph-name=".null" horiz-adv-x="0" 
 />
    <glyph glyph-name="nonmarkingreturn" horiz-adv-x="333" 
 />
    <glyph glyph-name="space" unicode="&#x9;" horiz-adv-x="278" 
 />
    <glyph glyph-name="space" unicode=" " horiz-adv-x="278" 
 />
    <glyph glyph-name="space" unicode="&#xd;" horiz-adv-x="278" 
 />
    <glyph glyph-name="exclam" unicode="!" horiz-adv-x="333" 
d="M110 45q0 -23 17 -38.5t40 -15.5t40 15.5t17 38.5t-17 40t-40 17t-40 -17t-17 -40zM157 171h20l13 151.5t12.5 150.5l9.5 119t4 57q0 27 -15 38t-34 11t-34 -11t-15 -38q0 -5 2 -29.5l5 -62l6.5 -84.5t8 -98.5l9 -104z" />
    <glyph glyph-name="quotedbl" unicode="&#x22;" horiz-adv-x="333" 
d="M215 698v-288h52v288h-52zM66 698v-288h52v288h-52z" />
    <glyph glyph-name="numbersign" unicode="#" 
d="M357 432l-43 -208h-115l43 208h115zM207 432l-43 -208h-73q0 -17 -5.5 -41.5t-13.5 -40.5h74l-16 -71.5l-9.5 -41t-5.5 -20.5t-4 -9h10.5h10.5h10.5h10.5q1 3 3 11t5 24l8 41.5l13 65.5h114l-16 -71.5l-9.5 -41t-5.5 -20.5t-4 -9h10.5h10.5h10.5h10.5q1 3 3 11t5 24
l8 41.5l13 65.5h73q0 16 6 41t13 41h-75l43 208h73q0 16 6 41t13 41h-74l14.5 71.5t9.5 41t6 21t5 11.5q-10 -3 -21 -3q-10 0 -21 3q-1 -6 -3 -15t-5 -25.5t-8 -41.5l-13 -63h-114l14.5 71.5t9.5 41t6 21t5 11.5q-10 -3 -21 -3q-10 0 -21 3q-1 -6 -3 -15t-5 -25.5t-8 -41.5
l-13 -63h-73q0 -17 -5.5 -41.5t-13.5 -40.5h75z" />
    <glyph glyph-name="dollar" unicode="$" 
d="M265 304v-283q-20 0 -41 4t-41.5 15.5t-40.5 31.5t-38 52h-12q-3 -27 -6.5 -45t-12.5 -40q37 -29 77 -40.5t88 -11.5h12h6q4 0 9 1q0 -28 -1.5 -56t-6.5 -51q17 5 26 5t26 -5q-5 28 -6 55.5t-1 56.5q43 7 76.5 26t57 47t35.5 62.5t12 71.5q0 36 -12 62t-35.5 46.5t-57 37
t-76.5 33.5v256q27 -1 46.5 -10.5t33 -22.5t21.5 -28t13 -28h12q6 27 12 45t15 35q-10 7 -23 15t-31 15t-42 11.5t-57 4.5q0 19 1 38.5t6 37.5q-17 -5 -26 -5t-26 5q5 -17 6.5 -37.5t1.5 -40.5q-81 -10 -128 -58.5t-47 -121.5q0 -36 10.5 -63.5t32.5 -49t54.5 -39
t77.5 -34.5zM265 633v-240q-48 18 -72.5 47t-24.5 77q0 46 27 77.5t70 38.5zM302 27v263q34 -17 54.5 -33t31 -31t14 -30t3.5 -32q0 -49 -27 -87.5t-76 -49.5z" />
    <glyph glyph-name="percent" unicode="%" horiz-adv-x="889" 
d="M606 695l-373 -731q15 5 24 5q8 0 23 -5l373 731q-15 -5 -23 -5q-9 0 -24 5zM599 150q0 28 5 53.5t16 45t27.5 31.5t38.5 12q23 0 39 -12t27 -31.5t16 -45t5 -53.5t-5 -53.5t-16 -45t-27 -31.5t-39 -12q-22 0 -38.5 12t-27.5 31.5t-16 45t-5 53.5zM525 150
q0 -36 11.5 -66.5t32.5 -52t51 -33t66 -11.5t66 11.5t51 33t32.5 52t11.5 66.5t-11.5 66t-32.5 52.5t-51 35t-66 12.5t-66 -12.5t-51 -35t-32.5 -52.5t-11.5 -66zM116 506q0 28 5 53.5t16 45t27.5 31.5t38.5 12q23 0 39 -12t27 -31.5t16 -45t5 -53.5t-5 -53.5t-16 -45
t-27 -31.5t-39 -12q-22 0 -38.5 12t-27.5 31.5t-16 45t-5 53.5zM42 506q0 -36 11.5 -66t32.5 -52.5t51 -35t66 -12.5t66 12.5t51 35t32.5 52.5t11.5 66t-11.5 66t-32.5 52.5t-51 35t-66 12.5t-66 -12.5t-51 -35t-32.5 -52.5t-11.5 -66z" />
    <glyph glyph-name="ampersand" unicode="&#x26;" horiz-adv-x="722" 
d="M153 169q0 62 31 101t86 72l91 -122l97 -119q-35 -35 -71 -53.5t-87 -18.5q-32 0 -59 11.5t-46.5 31t-30.5 45t-11 52.5zM186 522q0 -38 19 -76t48 -80q-39 -16 -72 -39t-57.5 -51.5t-38.5 -60t-14 -64.5q0 -42 15.5 -73.5t41.5 -52.5t60.5 -30.5t73.5 -9.5
q71 0 121.5 25.5t94.5 69.5q22 -26 38.5 -48.5l24.5 -33.5q14 2 28.5 2h28.5h32t32 -2l-128 141q42 48 73 93l62 93q-11 8 -21.5 17.5t-16.5 22.5q-24 -54 -53.5 -100.5t-65.5 -97.5q-45 49 -88 104.5l-88 113.5q22 13 46 31.5t44.5 41t33.5 48.5t13 54q0 55 -37.5 83.5
t-95.5 28.5q-34 0 -62 -11.5t-48.5 -32t-32 -47.5t-11.5 -59zM421 561q0 -38 -25.5 -80.5t-76.5 -74.5q-28 34 -45.5 74t-17.5 70q0 40 23 67t62 27q37 0 58.5 -23.5t21.5 -59.5z" />
    <glyph glyph-name="quotesingle" unicode="'" horiz-adv-x="278" 
d="M113 698v-288h52v288h-52z" />
    <glyph glyph-name="parenleft" unicode="(" horiz-adv-x="278" 
d="M242 680l-20 18q-40 -43 -70 -93t-50.5 -103.5t-31 -109.5t-10.5 -111q0 -115 40.5 -221t121.5 -193l20 18q-37 48 -60.5 93.5t-37 94t-18 100t-4.5 108.5t4.5 108.5t17.5 100t36.5 95.5t61.5 95z" />
    <glyph glyph-name="parenright" unicode=")" horiz-adv-x="278" 
d="M36 -115l20 -18q80 86 121 194.5t41 219.5q0 115 -40.5 222.5t-121.5 194.5l-20 -18q37 -48 60.5 -95t36.5 -95.5t18 -100t5 -108.5t-5 -108.5t-18 -100t-36.5 -94t-60.5 -93.5z" />
    <glyph glyph-name="asterisk" unicode="*" horiz-adv-x="444" 
d="M194 684l14 -155l-126 92q0 -15 -9.5 -29.5t-19.5 -22.5l144 -65l-140 -65q11 -8 19 -21t10 -30l122 89l-14 -152q12 4 29 4t29 -4l-17 152l126 -88q2 16 10.5 29t18.5 21l-141 66l142 64q-12 8 -20 22t-10 30l-125 -92l16 155q-11 -4 -29 -4t-29 4z" />
    <glyph glyph-name="plus" unicode="+" horiz-adv-x="606" 
d="M50 279v-52h227v-227h52v227h227v52h-227v227h-52v-227h-227z" />
    <glyph glyph-name="comma" unicode="," horiz-adv-x="278" 
d="M107 75l-77 -240l18 -7l125 209l10 20t5 22q0 18 -12.5 26t-24.5 8q-20 0 -30 -12.5t-14 -25.5z" />
    <glyph glyph-name="hyphen" unicode="-" horiz-adv-x="333" 
d="M42 262v-62h249v62h-249z" />
    <glyph glyph-name="period" unicode="." horiz-adv-x="278" 
d="M82 45q0 -23 17 -38.5t40 -15.5t40 15.5t17 38.5t-17 40t-40 17t-40 -17t-17 -40z" />
    <glyph glyph-name="slash" unicode="/" horiz-adv-x="278" 
d="M251 703l-273 -723q17 5 23 5q9 0 26 -5l276 723q-17 -5 -26 -5t-26 5z" />
    <glyph glyph-name="zero" unicode="0" 
d="M44 328q0 -71 9.5 -133.5t35.5 -109t71.5 -72.5t117.5 -26q61 0 105 27t72.5 74t42.5 109t14 131q0 71 -9.5 133.5t-35.5 109t-71.5 74t-117.5 27.5q-65 0 -110 -27.5t-72.5 -74t-39.5 -109t-12 -133.5zM126 328q0 71 7.5 128.5t25.5 98.5t47 63t72 22t72 -24t47 -66
t25.5 -99t7.5 -123t-7.5 -123t-25.5 -99t-47 -66t-72 -24t-72 24t-47 66t-25.5 99t-7.5 123z" />
    <glyph glyph-name="one" unicode="1" 
d="M243 608v-356q0 -66 -1.5 -129t-6.5 -125q12 2 23.5 2h23.5h23.5t23.5 -2q-4 61 -6 124.5t-2 129.5v167q0 66 2 130.5t6 130.5l-7 5l-111.5 -53.5t-116.5 -50.5v-7q19 -12 30 -32z" />
    <glyph glyph-name="two" unicode="2" 
d="M64 573l35 -49l7 2q3 15 11 34t23 35.5t38 28t55 11.5q45 0 78.5 -35.5t33.5 -109.5q0 -34 -4.5 -63.5t-17.5 -60t-35.5 -64.5t-58.5 -76t-87.5 -94.5l-121.5 -121.5v-12q54 2 107.5 2h107.5h107t107 -2q-5 20 -5 34q0 15 5 37q-42 -3 -97.5 -5.5t-127.5 -2.5h-95
q16 22 39 48l48.5 52.5l50.5 51.5l44 44q32 32 55.5 60.5t39 56.5t23.5 57.5t8 63.5q0 47 -15 80t-40.5 55t-60.5 32t-74 10q-63 0 -107 -24t-76 -75z" />
    <glyph glyph-name="three" unicode="3" 
d="M79 612l23 -54l7 2q11 31 40.5 55.5t71.5 24.5q20 0 39 -7t34 -22t24.5 -38.5t9.5 -55.5q0 -25 -4.5 -52t-17 -49.5t-34.5 -37t-57 -14.5q-25 0 -45 4q1 -5 1.5 -10.5t0.5 -10.5t-0.5 -10.5t-1.5 -10.5q9 2 21.5 4t23.5 2q31 0 57 -8t44.5 -25.5t29 -46t10.5 -69.5
q0 -37 -11 -68t-32 -53t-50.5 -34t-67.5 -12q-24 0 -44.5 6.5t-38 16.5t-30.5 22t-22 22l-6 -4q-1 -15 -4.5 -33.5t-7.5 -26.5q27 -13 63 -22.5t88 -9.5q57 0 104 15t80.5 43t52 66.5t18.5 84.5q0 45 -16.5 74t-41.5 46.5t-54 25t-55 9.5v6q22 6 46 19t43.5 33.5t32.5 49
t13 64.5q0 39 -15 67t-41 46t-61 27t-74 9q-55 0 -90.5 -20t-55.5 -40z" />
    <glyph glyph-name="four" unicode="4" 
d="M333 574v-336h-233q17 29 47.5 74l64.5 93.5l66 94l53 74.5h2zM21 197v-18q21 1 64 2.5t90.5 2.5t91 1.5t66.5 0.5v-42q0 -38 -3 -79l-5 -67q20 2 44 2t44 -2q-2 24 -4 65.5t-2 80.5v42q29 0 55 -1.5t43 -4.5q-5 20 -5 33t5 33q-17 -3 -43 -5.5t-55 -2.5v110
q0 87 2 169.5t5 148.5q-18 -5 -32 -5t-34 5q-24 -38 -61.5 -92.5l-82 -117.5l-92 -130z" />
    <glyph glyph-name="five" unicode="5" 
d="M158 374l14 227q23 0 60 -0.5t77 -2t76.5 -4t58.5 -6.5q-1 3 -1 17t1.5 28.5t5.5 27.5l-5 4q-18 -1 -55 -1.5t-85 -0.5q-78 0 -122 3q-39 3 -56 6l-9 -6q5 -34 6.5 -78.5t1.5 -86.5q0 -43 -1.5 -86.5t-8.5 -82.5l11 -7q9 6 35 19.5t68 13.5q27 0 52 -8.5t44.5 -27.5
t31.5 -49t12 -72q0 -47 -13 -82t-34 -58t-48.5 -34t-57.5 -11q-20 0 -41.5 4.5t-41 14t-35 23.5t-24.5 32h-7q-2 -12 -6 -28.5t-9 -29.5v-8q32 -22 73.5 -29.5t86.5 -7.5q56 0 101.5 17t78.5 47.5t51 72t18 88.5q0 38 -13.5 72t-38.5 60t-60.5 41t-79.5 15q-45 0 -68.5 -7.5
t-43.5 -18.5z" />
    <glyph glyph-name="six" unicode="6" 
d="M417 189q0 -38 -9 -70t-26 -55t-41.5 -35.5t-56.5 -12.5q-28 0 -52.5 12.5t-42.5 35.5t-28 55t-10 70t11 69.5t29.5 54.5t44 35.5t54.5 12.5q64 0 95.5 -48t31.5 -124zM417 637l-15 32q-8 2 -16.5 2.5t-25.5 0.5q-72 1 -127.5 -30t-93 -85.5t-57 -128t-19.5 -156.5
q0 -79 18 -133.5t48.5 -88.5t70.5 -48.5t83 -14.5q51 0 92 15.5t70 45t44.5 71t15.5 91.5q0 57 -21 93.5t-51.5 57.5t-64.5 29t-60 8q-33 0 -58.5 -9t-45 -23t-33.5 -31t-24 -34h-2q0 31 5 67.5t16 74.5t28 73.5t41 63t55 44t70 16.5q17 0 29 -2t23 -5z" />
    <glyph glyph-name="seven" unicode="7" 
d="M507 641v16q-26 0 -49 -0.5t-54 -0.5h-47q-38 0 -78.5 1t-63.5 1q-28 1 -60.5 3t-74.5 5q4 -20 4 -44q0 -25 -4 -45q129 8 216.5 9t132.5 1l-67 -116l-89 -150.5l-99.5 -165l-98.5 -157.5q17 2 36 2q22 0 38 -2l174.5 324.5z" />
    <glyph glyph-name="eight" unicode="8" 
d="M413 184q0 -37 -9.5 -67.5t-27 -53t-42.5 -35t-56 -12.5t-56 12.5t-42.5 35t-27 53t-9.5 67.5t9.5 67.5t27 53t42.5 35t56 12.5t56 -12.5t42.5 -35t27 -53t9.5 -67.5zM387 512q0 -25 -6 -48.5t-19.5 -41t-33.5 -28t-49 -10.5q-28 0 -48.5 10.5t-33.5 28t-19 41t-6 48.5
q0 26 6 49t19 40.5t33.5 28t48.5 10.5q29 0 49 -10.5t33.5 -28t19.5 -40.5t6 -49zM55 179q0 -47 17 -83t47 -61t71 -36.5t88 -11.5q46 0 86.5 14t71 42.5t48 68.5t17.5 90q0 46 -16 77t-38.5 50.5t-47.5 29t-42 12.5v7q55 18 83.5 58.5t28.5 88.5q0 29 -11.5 55.5
t-34.5 46.5t-59 32.5t-86 12.5q-43 0 -77.5 -13t-59 -35t-38 -50.5t-13.5 -60.5q0 -28 10 -52t26 -41.5t35.5 -29t38.5 -15.5v-7q-78 -26 -111.5 -77t-33.5 -112z" />
    <glyph glyph-name="nine" unicode="9" 
d="M403 484q0 -36 -9.5 -70t-27.5 -60t-44.5 -42t-61.5 -16q-57 0 -90 37.5t-33 124.5q0 85 36.5 133.5t96.5 48.5t96.5 -43.5t36.5 -112.5zM106 57l-5 -3q6 -11 11.5 -27t8.5 -27q11 -4 32 -8.5t47 -4.5q70 0 124.5 30t92.5 84t58 127t20 156q0 79 -18.5 133.5t-49 89
t-71 50t-85.5 15.5q-51 0 -92 -16.5t-70 -45t-44.5 -67.5t-15.5 -85q0 -96 51.5 -147.5t142.5 -51.5q60 0 99.5 26t62.5 68h2q0 -60 -11.5 -120t-35.5 -108.5t-62.5 -78.5t-92.5 -30q-28 0 -53 11t-46 30z" />
    <glyph glyph-name="colon" unicode=":" horiz-adv-x="278" 
d="M82 45q0 -23 17 -38.5t40 -15.5t40 15.5t17 38.5t-17 40t-40 17t-40 -17t-17 -40zM82 411q0 -23 17 -40t40 -17t40 17t17 40t-17 40t-40 17t-40 -17t-17 -40z" />
    <glyph glyph-name="semicolon" unicode=";" horiz-adv-x="278" 
d="M82 411q0 -23 17 -40t40 -17t40 17t17 40t-17 40t-40 17t-40 -17t-17 -40zM107 75l-77 -240l18 -7l125 209l10 20t5 22q0 18 -12.5 26t-24.5 8q-20 0 -30 -12.5t-14 -25.5z" />
    <glyph glyph-name="less" unicode="&#x3c;" horiz-adv-x="606" 
d="M50 280v-52l506 -236v50l-459 211l459 211v52z" />
    <glyph glyph-name="equal" unicode="=" horiz-adv-x="606" 
d="M556 130v52h-506v-52h506zM556 324v52h-506v-52h506z" />
    <glyph glyph-name="greater" unicode="&#x3e;" horiz-adv-x="606" 
d="M50 42v-50l506 234v52l-506 238v-52l459 -211z" />
    <glyph glyph-name="question" unicode="?" horiz-adv-x="389" 
d="M125 45q0 -23 17 -38.5t40 -15.5t40 15.5t17 38.5t-17 40t-40 17t-40 -17t-17 -40zM80 665l6 -50q17 20 40.5 33t50.5 13q16 0 31.5 -5.5t27.5 -16t19.5 -25.5t7.5 -35q0 -27 -12.5 -50.5t-32 -45t-41.5 -42.5t-41.5 -44.5t-32 -51t-12.5 -60.5q0 -31 12 -52t29 -34
t35.5 -19t30.5 -6q20 0 35 5q1 7 4.5 15t7.5 13l-6 4q-4 -2 -13 -5.5t-21 -3.5q-26 0 -39 19.5t-13 39.5q0 26 13 49t33 45t43 44.5t43 47.5t33 54.5t13 64.5q0 27 -9.5 51t-28.5 42t-46.5 28.5t-63.5 10.5q-35 0 -59 -10.5t-44 -22.5z" />
    <glyph glyph-name="at" unicode="@" horiz-adv-x="800" 
d="M476 425q0 -26 -7.5 -63t-22 -70.5t-36.5 -57.5t-51 -24q-36 0 -48.5 23.5t-12.5 69.5q0 30 7.5 65t22.5 64t37 48.5t50 19.5q38 0 49.5 -21.5t11.5 -53.5zM506 522l-10 -54h-2q-3 34 -25.5 49t-53.5 15q-37 0 -69.5 -16.5t-57 -46.5t-38.5 -71t-14 -91q0 -134 108 -134
q19 0 35 6.5t29.5 17t25 23t20.5 25.5h2q0 -33 11.5 -52.5t53.5 -19.5q32 0 66 17.5t62 49t46 76t18 98.5q0 44 -13.5 87t-46 76.5t-86.5 54t-136 20.5q-79 0 -142.5 -27t-108.5 -71t-69 -100.5t-24 -115.5q0 -79 26.5 -137.5t68.5 -97t93 -57t100 -18.5q47 0 87 9
t71.5 22.5t54 28.5t35.5 27l3 32q-19 -14 -43.5 -28.5t-53 -26.5t-61.5 -19.5t-69 -7.5q-54 0 -100 15t-79 45t-52 75t-19 105q0 66 21 123.5t58 100t88 67t111 24.5q69 0 115 -17t73.5 -47t39 -71.5t11.5 -90.5q0 -41 -13 -76.5t-32.5 -61.5t-42 -40.5t-42.5 -14.5
q-15 0 -24 9t-9 26q0 7 1 17.5t6.5 39l16.5 82.5l31 147h-52z" />
    <glyph glyph-name="A" unicode="A" horiz-adv-x="667" 
d="M207 309q26 0 54 -1t54 -1q28 0 56 0.5t56 1.5l-111 254zM650 -2q-14 2 -26.5 2h-26.5h-26.5t-26.5 -2q-7 23 -19 55.5t-26.5 68l-29.5 72l-28 69.5q-32 1 -65 1.5t-66 0.5q-31 0 -61 -0.5t-61 -1.5q-32 -78 -58 -148.5t-39 -116.5q-17 2 -37 2t-37 -2l158 348l155 352
h19l52 -125.5l57 -136.5l58 -137l54.5 -126.5l46 -104.5t33.5 -70z" />
    <glyph glyph-name="B" unicode="B" horiz-adv-x="611" 
d="M180 239v102h45q50 0 90.5 -6t69.5 -21.5t44.5 -43t15.5 -70.5q0 -40 -13 -71.5t-35 -53t-51.5 -32.5t-61.5 -11q-27 0 -53 1.5t-45 3.5l-4 101t-2 101zM234 378h-54v75q0 48 2 95l4 95q14 2 32 3.5t44 1.5q29 0 58 -4.5t52 -18t38 -38t15 -65.5q0 -42 -16.5 -69.5
t-43.5 -44t-61.5 -23.5t-69.5 -7zM98 427v-172q0 -66 -2.5 -129.5t-5.5 -127.5q24 2 48.5 2h48.5t48.5 -1t48.5 -1q44 0 88.5 9.5t81.5 33t60 61.5t23 94q0 86 -51.5 125t-140.5 43v2q75 17 121.5 59t46.5 116q0 42 -17 70t-46 44.5t-67 23t-81 6.5q-26 0 -53 -2.5t-53 -2.5
t-53 1.5t-53 3.5q3 -64 5.5 -128t2.5 -130z" />
    <glyph glyph-name="C" unicode="C" horiz-adv-x="667" 
d="M615 39l9 59l-4 4q-14 -11 -34.5 -25.5t-46 -27t-56 -21.5t-66.5 -9q-59 0 -109.5 19t-88 58.5t-58.5 100t-21 143.5t21 143.5t58.5 100t88 58.5t109.5 19q36 0 66 -9.5t54 -23.5t42 -29t28 -27l6 2q3 16 8 40t13 38q-42 19 -96.5 32.5t-120.5 13.5q-83 0 -152 -24
t-118.5 -70t-77 -112.5t-27.5 -151.5t27.5 -151.5t76 -112.5t115.5 -68.5t146 -22.5q37 0 71 6t61.5 13.5t47 17t28.5 17.5z" />
    <glyph glyph-name="D" unicode="D" horiz-adv-x="778" 
d="M98 426v-172q0 -66 -2.5 -130t-5.5 -126q34 2 67 2h67t67 -1t67 -1q59 0 123.5 17.5t118 59.5t88 110.5t34.5 168.5q0 77 -18.5 138.5t-58.5 104t-102.5 65.5t-150.5 23q-38 0 -75.5 -2.5t-75.5 -2.5t-75.5 1.5t-75.5 3.5q3 -66 5.5 -129.5t2.5 -129.5zM180 254v172
q0 54 1.5 106.5t4.5 100.5q31 4 70 7t84 3q62 0 114 -12.5t89.5 -45t59 -88.5t21.5 -143q0 -99 -27.5 -161.5t-71 -98.5t-98.5 -49t-110 -13q-38 0 -74 2.5t-57 7.5q-6 104 -6 212z" />
    <glyph glyph-name="E" unicode="E" horiz-adv-x="500" 
d="M98 427v-172q0 -66 -2.5 -129.5t-5.5 -127.5q46 2 91 2h91h90.5t89.5 -2q-3 10 -3 26q0 7 0.5 15.5t2.5 15.5q-24 -5 -56.5 -7.5t-69 -4t-74.5 -1.5h-70q-1 19 -1.5 56t-0.5 94v60v39q0 16 0.5 26.5t0.5 19.5q18 0 48.5 -0.5t65 -1t69 -2.5t60.5 -5q-3 15 -3 30
q0 16 3 31q-22 -2 -46.5 -3.5t-53.5 -3t-64 -2.5t-79 -1q0 19 -0.5 56t-0.5 76q0 37 1.5 66t2.5 61q49 0 84 -1.5t64.5 -3.5t56 -4t58.5 -4q-3 15 -3 30t3 30q-45 -2 -89 -3.5t-89 -1.5t-89.5 1.5t-89.5 3.5q3 -64 5.5 -128t2.5 -130z" />
    <glyph glyph-name="F" unicode="F" horiz-adv-x="500" 
d="M98 426v-172q0 -66 -2.5 -130t-5.5 -126q23 2 49 2t49 -2q-3 62 -5.5 126t-2.5 130v85h67t69 -1t65.5 -2.5t56.5 -4.5q-4 15 -4 30t4 30q-63 -6 -127.5 -8t-130.5 -2q0 32 -0.5 61.5t-0.5 64.5q0 32 0.5 64t1.5 67q24 0 60.5 -1t76 -2.5t77.5 -4t65 -5.5q-3 15 -3 30
t3 30q-54 -2 -100 -3.5t-91 -1.5t-89.5 1.5t-89.5 3.5q3 -66 5.5 -129.5t2.5 -129.5z" />
    <glyph glyph-name="G" unicode="G" horiz-adv-x="778" 
d="M671 563h12q2 19 8.5 41t14.5 36q-18 9 -41 19t-53.5 19t-70 14.5t-90.5 5.5q-88 0 -160.5 -24t-123.5 -70t-79 -112.5t-28 -151.5q0 -88 27 -155t77 -112t121.5 -66.5t160.5 -21.5q29 0 64.5 4.5t71 10t67 14t52.5 16.5q0 20 -0.5 40.5t-0.5 40.5q0 81 1 130.5t3 72.5
q-10 -3 -21 -4t-22 -1q-23 0 -48 5q2 -32 3.5 -67t1.5 -70q0 -31 -0.5 -61t-1.5 -60q-13 -8 -31.5 -14t-40 -10t-44.5 -6t-44 -2q-70 0 -125.5 22t-94 62.5t-58.5 99.5t-20 132q0 83 22.5 143.5t62 100t93 58.5t115.5 19q38 0 71.5 -8.5t61 -22t50 -31.5t37.5 -36z" />
    <glyph glyph-name="H" unicode="H" horiz-adv-x="778" 
d="M598 426v-35l-104.5 -2t-104.5 -1t-104.5 1l-104.5 2v35q0 66 2.5 129.5t5.5 129.5q-13 -2 -25 -3.5t-24 -1.5t-24 1.5t-25 3.5q3 -66 5.5 -129.5t2.5 -129.5v-172q0 -66 -2.5 -130t-5.5 -126q23 2 49 2t49 -2q-3 62 -5.5 126t-2.5 130v90q54 1 104.5 1.5t104.5 0.5
t104.5 -0.5t104.5 -1.5v-90q0 -66 -2.5 -130t-5.5 -126q23 2 49 2t49 -2q-3 62 -5.5 126t-2.5 130v172q0 66 2.5 129.5t5.5 129.5q-13 -2 -25 -3.5t-24 -1.5t-24 1.5t-25 3.5q3 -66 5.5 -129.5t2.5 -129.5z" />
    <glyph glyph-name="I" unicode="I" horiz-adv-x="278" 
d="M98 426v-172q0 -66 -2.5 -130t-5.5 -126q23 2 49 2t49 -2q-3 62 -5.5 126t-2.5 130v172q0 66 2.5 129.5t5.5 129.5q-13 -2 -25 -3.5t-24 -1.5t-24 1.5t-25 3.5q3 -66 5.5 -129.5t2.5 -129.5z" />
    <glyph glyph-name="J" unicode="J" horiz-adv-x="278" 
d="M-27 -113l8 -28q44 0 81.5 16.5t64.5 45.5t41.5 66.5t14.5 82.5q0 36 -0.5 79l-1 89.5l-1 94.5t-0.5 93q0 66 2.5 129.5t5.5 129.5q-13 -2 -25 -3.5t-24 -1.5t-24 1.5t-25 3.5q3 -66 5.5 -129.5t2.5 -129.5v-275q0 -59 -3.5 -107t-16.5 -83t-38 -54.5t-67 -19.5z" />
    <glyph glyph-name="K" unicode="K" horiz-adv-x="611" 
d="M90 -2q23 2 49 2t49 -2q-3 62 -5.5 126t-2.5 130v87q0 6 5 6q4 0 12 -8q16 -16 49.5 -55.5l75 -89l85 -102.5l79.5 -94q14 2 27.5 2h27.5h30t30 -2l-167.5 189.5l-163.5 185.5q27 31 67.5 72.5l85 84.5l88.5 84l79 71q-12 -2 -24 -3.5t-24 -1.5q-10 0 -20 1.5t-21 3.5
l-73 -82.5l-77 -83.5l-77.5 -79t-73.5 -68q-10 -9 -14 -9q-6 0 -6 8v55q0 66 2.5 129.5t5.5 129.5q-13 -2 -25 -3.5t-24 -1.5t-24 1.5t-25 3.5q3 -66 5.5 -129.5t2.5 -129.5v-172q0 -66 -2.5 -130t-5.5 -126z" />
    <glyph glyph-name="L" unicode="L" horiz-adv-x="500" 
d="M98 426v-172q0 -66 -2.5 -130t-5.5 -126q48 2 92.5 2h92.5h92t92 -2q-5 16 -5 27q0 12 5 30q-75 -10 -140 -11.5t-136 -1.5q-1 73 -2 165.5t-1 218.5q0 66 2.5 129.5t5.5 129.5q-13 -2 -25 -3.5t-24 -1.5t-24 1.5t-25 3.5q3 -66 5.5 -129.5t2.5 -129.5z" />
    <glyph glyph-name="M" unicode="M" horiz-adv-x="889" 
d="M162 698h-17q-8 -80 -19 -168.5t-24 -179.5l-27 -181l-27 -171q16 2 35 2t35 -2q0 40 5 102.5t12 133t15.5 143l15.5 134.5h2l131.5 -258.5l125.5 -252.5h9q60 136 126.5 260.5l135.5 250.5h2q16 -130 27 -255l22 -258q12 2 23.5 2h23.5h23.5t23.5 -2q-12 83 -22 167.5
l-20 171l-19.5 176l-20.5 185.5h-13l-54 -99l-58.5 -108l-58 -108.5l-53.5 -99.5l-44 -81.5l-29 -54.5l-147.5 275z" />
    <glyph glyph-name="N" unicode="N" horiz-adv-x="778" 
d="M661 -15h14v33q0 24 -0.5 56.5t-1 70l-1 74.5t-0.5 71v60q0 29 2 77t4.5 98t5 94t4.5 66q-20 -5 -32 -5q-14 0 -34 5q5 -88 6.5 -187.5t1.5 -204.5v-136l-107.5 111.5l-130 139l-138 149l-130.5 141.5h-16q2 -34 2.5 -103t0.5 -165q0 -33 -1 -75t-2.5 -86t-4 -88
l-4.5 -81.5t-4.5 -64.5t-4.5 -37q17 2 37 2q19 0 35 -2q-1 8 -2 30.5t-2 52.5t-2 65t-1.5 69l-1 65t-0.5 52q0 81 1 128t2 75l260 -277.5z" />
    <glyph glyph-name="O" unicode="O" horiz-adv-x="833" 
d="M42 340q0 -85 27.5 -151.5t77 -112.5t118.5 -68.5t151 -22.5q83 0 152 22.5t118.5 68.5t77 112.5t27.5 151.5t-27.5 151.5t-77 112.5t-118.5 70t-152 24q-82 0 -151 -24t-118.5 -70t-77 -112.5t-27.5 -151.5zM693 340q0 -83 -21 -143.5t-58.5 -100t-88 -58.5t-109.5 -19
q-58 0 -108.5 19t-88 58.5t-58.5 100t-21 143.5t21 143.5t58.5 100t88 58.5t108.5 19q59 0 109.5 -19t88 -58.5t58.5 -100t21 -143.5z" />
    <glyph glyph-name="P" unicode="P" 
d="M180 351v297h90q39 0 70 -5.5t52.5 -20.5t33.5 -42t12 -70q0 -51 -17.5 -83.5t-45 -51t-60.5 -25.5t-64 -7q-37 0 -71 8zM98 426v-172q0 -66 -2.5 -130t-5.5 -126q23 2 49 2t49 -2q-3 62 -5.5 126t-2.5 130v55q20 -2 39 -2.5t42 -0.5q36 0 82.5 8t88 31t70 64t28.5 107
q0 42 -12 70.5t-31.5 47.5t-43.5 29t-48.5 15t-46.5 6t-37 1q-11 0 -27 -1t-33.5 -1.5t-34.5 -1.5t-29 -1q-24 0 -48.5 1.5t-48.5 3.5q3 -66 5.5 -129.5t2.5 -129.5z" />
    <glyph glyph-name="Q" unicode="Q" horiz-adv-x="833" 
d="M42 340q0 -85 27.5 -151.5t77 -112.5t118.5 -68.5t151 -22.5h14q10 0 15 1q63 -51 119 -101l111 -101q8 13 30 26t48 15l-116.5 86l-109.5 86q60 11 108.5 40t83 73.5t53.5 102t19 127.5q0 85 -27.5 151.5t-77 112.5t-118.5 70t-152 24q-82 0 -151 -24t-118.5 -70
t-77 -112.5t-27.5 -151.5zM693 340q0 -83 -21 -143.5t-58.5 -100t-88 -58.5t-109.5 -19q-58 0 -108.5 19t-88 58.5t-58.5 100t-21 143.5t21 143.5t58.5 100t88 58.5t108.5 19q59 0 109.5 -19t88 -58.5t58.5 -100t21 -143.5z" />
    <glyph glyph-name="R" unicode="R" horiz-adv-x="611" 
d="M98 426v-172q0 -66 -2.5 -130t-5.5 -126q23 2 49 2t49 -2q-3 62 -5.5 126t-2.5 130v73h38q32 -33 70.5 -80.5l75.5 -95.5l67.5 -90l45.5 -63q14 2 29 2h29h30t30 -2q-14 14 -37 41l-49 59.5l-54 68l-54 68l-47 59.5l-33 42q29 4 64.5 16.5t66.5 35t52.5 57t21.5 82.5
q0 45 -16.5 75t-45 48.5t-66.5 26.5t-80 8q-29 0 -57 -2.5t-57 -2.5t-57 1.5t-57 3.5q3 -66 5.5 -129.5t2.5 -129.5zM180 369v57q0 54 2 108l4 109q16 2 39 3.5t58 1.5q26 0 53 -5.5t50 -20.5t37.5 -40.5t14.5 -64.5q0 -45 -18.5 -74.5t-46.5 -47t-61.5 -24.5t-64.5 -7
q-20 0 -36.5 1t-30.5 4z" />
    <glyph glyph-name="S" unicode="S" horiz-adv-x="500" 
d="M76 128h-12q-3 -29 -6.5 -47.5t-12.5 -41.5q26 -21 64.5 -37.5t100.5 -16.5q58 0 103.5 16.5t77 47t48 71.5t16.5 87q0 55 -23.5 88t-58.5 54t-75.5 35.5t-75.5 33t-58.5 45.5t-23.5 74q0 27 9.5 50t27 39.5t41 25.5t51.5 9t48 -9.5t34.5 -23.5t23 -30.5t13.5 -30.5h12
q6 29 12 48t15 36q-30 24 -65 35.5t-83 11.5q-50 0 -90 -14t-68.5 -39t-43.5 -59.5t-15 -76.5q0 -59 23.5 -94t58.5 -57.5t75.5 -37.5t75.5 -33t58.5 -45t23.5 -73q0 -30 -10 -56.5t-28.5 -46t-45 -31t-59.5 -11.5q-32 0 -58 9.5t-45.5 24.5t-33 33.5t-21.5 36.5z" />
    <glyph glyph-name="T" unicode="T" 
d="M237 426v-172q0 -66 -2.5 -130t-5.5 -126q23 2 49 2t49 -2q-3 62 -5.5 126t-2.5 130v172q0 104 3 207q26 0 54.5 -0.5t57 -2t55 -3.5t47.5 -5q-5 18 -5 31q0 12 5 32q-66 -2 -129 -3.5t-129 -1.5t-129 1.5t-129 3.5q5 -20 5 -31q0 -14 -5 -32q21 3 47.5 5t55 3.5t57 2
t54.5 0.5q3 -103 3 -207z" />
    <glyph glyph-name="U" unicode="U" horiz-adv-x="778" 
d="M619 360q0 -31 -1 -68t-7 -74t-19.5 -71t-37.5 -60t-61.5 -42t-92.5 -16q-56 0 -94 13.5t-63 37t-38.5 55t-19.5 66t-7 71t-1 70.5q0 56 1 108t3 97t4 80.5t4 57.5q-11 -2 -21.5 -3.5t-21.5 -1.5q-12 0 -26 1.5t-26 3.5q2 -45 4 -110t2 -149q0 -38 -2.5 -74.5t-2.5 -83.5
q0 -147 68 -215t218 -68q68 0 120.5 19t88.5 56t55.5 90t20.5 120q1 55 3 113.5l4 114t5 104t6 83.5q-17 -5 -30 -5q-10 0 -20 1.5t-21 3.5q4 -29 5 -106t1 -219z" />
    <glyph glyph-name="V" unicode="V" horiz-adv-x="667" 
d="M296 -2q13 2 33 2q17 0 33 -2l138 342l150 345q-22 -5 -37 -5t-37 5l-27 -78l-35.5 -97l-40.5 -108.5l-42.5 -111l-42.5 -105l-39 -91.5l-63 153l-60.5 152l-56 147.5t-48.5 138.5q-14 -2 -27 -3.5t-25 -1.5t-25 1.5t-27 3.5l75.5 -182l77 -188l70.5 -175z" />
    <glyph glyph-name="W" unicode="W" horiz-adv-x="1000" 
d="M229 -2q16 2 35 2t35 -2l33 98l37 110l38 111l35.5 103l30 86.5l21.5 61.5h2l95 -290.5l89 -279.5q16 2 34 2t34 -2q9 24 27.5 78.5l42 123l49 144.5l49 144l42.5 121t29 76q-9 -2 -17.5 -3.5t-17.5 -1.5t-17.5 1.5t-17.5 3.5q-5 -22 -18.5 -68l-31 -104.5l-37 -123
l-38 -123l-33 -105l-21.5 -68.5h-2l-24.5 72l-34.5 103l-39.5 119l-38.5 119.5l-32.5 104.5t-21.5 74q-20 -5 -33 -5t-33 5q-6 -25 -20 -71.5l-32 -103l-39 -118.5l-40 -119.5l-35 -105l-25 -74.5h-2l-53.5 170.5l-44 144t-38.5 135l-37 142.5q-13 -2 -25 -3.5t-25 -1.5
t-25 1.5t-25 3.5q10 -26 27.5 -80l38.5 -121.5l44 -142l44 -142.5l37.5 -122z" />
    <glyph glyph-name="X" unicode="X" horiz-adv-x="611" 
d="M319 411l-84 141.5t-71 132.5q-14 -2 -27 -3.5t-27 -1.5t-27 1.5t-27 3.5l107.5 -173l104.5 -173l-114 -173l-117 -168q10 2 19.5 2h17.5h17.5t19.5 -2l86 148.5t95 151.5q51 -76 90.5 -151.5l79.5 -148.5q14 2 28 2h28h28t28 -2l-117.5 185l-114.5 190q51 81 106 157
l112 155q-22 -5 -37 -5t-37 5q-42 -77 -81.5 -141.5t-85.5 -132.5z" />
    <glyph glyph-name="Y" unicode="Y" horiz-adv-x="611" 
d="M265 279q0 -81 -1 -155t-7 -126q23 2 49 2t49 -2q-2 21 -3.5 55.5t-2.5 75t-1.5 82.5t-0.5 79q16 31 38 69.5l51 86.5l67 107l86 132q-25 -5 -39 -5t-39 5l-43 -88.5l-48 -90.5l-50 -88l-48 -79l-98.5 175l-91.5 171q-14 -2 -27.5 -3.5t-27.5 -1.5t-27.5 1.5t-27.5 3.5
l29 -47.5l42.5 -71l49.5 -83l49.5 -83l43 -72z" />
    <glyph glyph-name="Z" unicode="Z" horiz-adv-x="611" 
d="M23 12v-14q19 1 58 1.5t86.5 0.5h96.5h89h55h55t58.5 -0.5t66.5 -1.5q-5 16 -5 29q0 8 1.5 16t3.5 17q-26 -3 -70.5 -6t-94.5 -6t-100.5 -4.5t-88.5 -1.5q-20 0 -39.5 0.5t-43.5 2.5l47.5 73.5l74.5 111.5l89 130l90.5 129l79.5 109t56 69v18q-26 -2 -53 -3.5t-54 -1.5
q-156 0 -262 0.5t-155 4.5q5 -18 5 -31t-5 -31q28 3 68.5 5.5l85 5t88.5 3.5t80 1q16 0 34 -0.5t36 -1.5l-39 -58.5l-61 -90l-77 -112l-86 -123l-87.5 -124.5z" />
    <glyph glyph-name="bracketleft" unicode="[" horiz-adv-x="333" 
d="M138 407v-252q0 -140 -6 -273q23 3 51 3q12 0 27.5 -0.5l31 -1t29.5 -1t24 -0.5q-1 4 -1.5 7t-0.5 7q0 2 0.5 6t1.5 9q-21 -1 -44.5 -1.5t-46.5 -0.5q-4 63 -6 123t-2 123v252q0 63 2 124.5t6 124.5q23 0 46.5 -0.5t44.5 -1.5q-1 5 -1.5 9t-0.5 6q0 4 0.5 7t1.5 7
q-10 0 -24 -0.5t-29.5 -1l-31 -1t-27.5 -0.5q-28 0 -51 3q6 -136 6 -276z" />
    <glyph glyph-name="backslash" unicode="\" horiz-adv-x="500" 
d="M86 703l276 -723q17 5 26 5t26 -5l-276 723q-17 -5 -26 -5t-26 5z" />
    <glyph glyph-name="bracketright" unicode="]" horiz-adv-x="333" 
d="M137 407v-252q0 -63 -2 -123t-6 -123q-23 0 -46.5 0.5t-44.5 1.5q1 -5 1.5 -9t0.5 -6q0 -4 -0.5 -7t-1.5 -7q10 0 24 0.5t29.5 1l31 1t27.5 0.5q29 0 51 -3q-6 133 -6 273v252q0 140 6 276q-22 -3 -51 -3q-12 0 -27.5 0.5l-31 1t-29.5 1t-24 0.5q1 -4 1.5 -7t0.5 -7
q0 -2 -0.5 -6t-1.5 -9q21 1 44.5 1.5t46.5 0.5q4 -63 6 -124.5t2 -124.5z" />
    <glyph glyph-name="asciicircum" unicode="^" horiz-adv-x="606" 
d="M278 656l-236 -453h52l209 406l209 -406h52l-234 453h-52z" />
    <glyph glyph-name="underscore" unicode="_" horiz-adv-x="500" 
d="M0 -128h500v50h-500v-50z" />
    <glyph glyph-name="grave" unicode="`" horiz-adv-x="333" 
d="M46 653l147 -94h42l-147 149q-24 24 -45 24q-10 0 -21.5 -8t-11.5 -24q0 -18 12 -28.5t24 -18.5z" />
    <glyph glyph-name="a" unicode="a" horiz-adv-x="500" 
d="M333 247l-4 -150q-17 -28 -48.5 -49t-69.5 -21q-33 0 -60 24t-27 71q0 28 10.5 46t28 30t40 19t45.5 11.5l45.5 8.5t39.5 10zM86 425v-52h11q17 32 51.5 50t74.5 18q30 0 51 -10.5t34 -27.5t19 -40t6 -48q0 -15 -3 -24.5t-17.5 -16.5t-45 -13.5t-84.5 -15.5
q-66 -11 -103.5 -44t-37.5 -93q0 -29 11.5 -51.5t30 -38.5t42.5 -23t49 -7q51 0 86 17t71 53q3 -26 20 -42.5t49 -16.5q20 0 36.5 3t27.5 8v22q-5 -3 -10.5 -3.5t-10.5 -0.5q-15 0 -22.5 7t-11.5 17.5t-4.5 24t-0.5 25.5q0 63 2 119.5t2 113.5q0 33 -12 60.5t-33 47t-51 30
t-66 10.5q-40 0 -78 -12t-83 -46z" />
    <glyph glyph-name="b" unicode="b" 
d="M426 251q0 -53 -11 -96t-30.5 -74t-45.5 -47.5t-57 -16.5q-146 0 -146 201q0 62 12.5 104.5t33.5 69t49.5 38t59.5 11.5q26 0 50.5 -12.5t43 -36.5t30 -59.5t11.5 -81.5zM514 248q0 47 -12.5 89.5t-37.5 74.5t-63 51.5t-90 19.5q-54 0 -95 -25t-75 -79h-2q1 46 2 102.5
l2 110t3 97t5 63.5q-14 -2 -26 -3.5t-23 -1.5q-17 0 -45 5q2 -25 3.5 -60.5t2.5 -74.5t1.5 -79t0.5 -74v-181q0 -34 -0.5 -74t-1.5 -78.5t-2.5 -72.5t-3.5 -58h18q31 29 67 58q20 -29 58.5 -49.5t86.5 -20.5t89.5 18.5t72 53t48 82.5t17.5 106z" />
    <glyph glyph-name="c" unicode="c" horiz-adv-x="500" 
d="M42 234q0 -68 21.5 -115t56.5 -76.5t78.5 -42t86.5 -12.5q48 0 92.5 17t74.5 41q1 25 6 49l-5 3q-13 -15 -30.5 -28t-37.5 -22.5t-41 -15t-41 -5.5q-85 0 -129 52.5t-44 155.5q0 46 9.5 85.5t30 68.5t53 45.5t77.5 16.5q24 0 44 -7.5t36.5 -19t28.5 -25t19 -26.5h8
q4 18 9.5 34.5t12.5 31.5q-19 17 -62.5 30.5t-98.5 13.5q-48 0 -94 -14.5t-81.5 -45t-57.5 -77.5t-22 -112z" />
    <glyph glyph-name="d" unicode="d" 
d="M130 225q0 45 8.5 84.5t26 69t44 46t62.5 16.5q72 0 109 -50.5t37 -146.5q0 -40 -8.5 -80t-27 -71.5t-46.5 -51t-67 -19.5q-24 0 -49 9t-44.5 32.5t-32 62.5t-12.5 99zM416 93l-3 -95q20 2 38 2q19 0 39 -2l-2 113t-1 124q0 64 1 141t2.5 150t3.5 133.5t5 92.5
l-23.5 -3.5t-21.5 -1.5t-22 1.5t-23 3.5q1 -24 1.5 -55t1 -66l1 -73.5t0.5 -76.5v-98h-2q-43 100 -154 100q-39 0 -77.5 -15.5t-69 -47t-49.5 -78.5t-19 -111q0 -65 17.5 -111.5t46 -76t65 -42.5t74.5 -13q37 0 65 10t48.5 26t34 34.5t21.5 34.5h2z" />
    <glyph glyph-name="e" unicode="e" horiz-adv-x="500" 
d="M266 451q39 0 63 -17t37.5 -43t18 -56t4.5 -57l-66 -2t-67 -1q-32 0 -65.5 1l-64.5 2q2 27 10.5 57.5t25 56t42 42.5t62.5 17zM35 220q0 -50 17.5 -93t50 -74.5t77 -48t98.5 -16.5q48 0 92.5 17t74.5 41l6 49l-5 3q-13 -15 -30.5 -28t-37.5 -22.5t-41 -15t-41 -5.5
q-42 0 -74 14.5t-54 39t-33.5 58.5t-11.5 73v13q0 10 1 15l65.5 2t65.5 1q54 0 107 -1l107 -2q1 10 1.5 19.5t0.5 19.5q0 42 -12.5 79t-38.5 64.5t-64.5 44t-91.5 16.5q-112 0 -170.5 -70t-58.5 -193z" />
    <glyph glyph-name="f" unicode="f" horiz-adv-x="278" 
d="M288 669l6 3q0 20 1.5 40t2.5 40q-9 3 -20 3q-29 0 -56.5 -14t-45.5 -32q-20 -20 -36 -49.5t-27.5 -62.5t-17.5 -67t-6 -63q-17 0 -35.5 0.5t-36.5 0.5q1 -5 1.5 -10t0.5 -10t-0.5 -10t-1.5 -10l36 2t36 1q0 -111 -1 -217.5t-8 -215.5q23 2 44 2h21t22 -2
q-3 109 -3.5 216.5t-0.5 216.5q26 0 51.5 -1l51.5 -2q-1 5 -1.5 10t-0.5 10t0.5 10t1.5 10q-26 0 -51.5 -0.5t-51.5 -0.5q-5 31 -8.5 65t-3.5 52q0 20 4.5 38t14.5 31.5t25.5 22t37.5 8.5q31 0 55 -15z" />
    <glyph glyph-name="g" unicode="g" horiz-adv-x="500" 
d="M405 -108q0 -34 -14 -58.5t-36.5 -40.5t-51.5 -24t-59 -8q-31 0 -58 7t-46.5 22t-31 39t-11.5 58q0 64 41 88.5t116 24.5q81 0 116 -24t35 -84zM351 325q0 -28 -6.5 -53.5t-20 -45t-34 -31t-49.5 -11.5q-58 0 -85.5 36.5t-27.5 99.5q0 61 30 97.5t84 36.5q49 0 79 -33
t30 -96zM50 320q0 -55 26 -91.5t72 -56.5v-2q-12 -2 -25 -9t-23 -18t-16.5 -25t-6.5 -31q0 -29 16 -50t47 -30v-2q-20 -5 -39 -15t-34 -27t-24.5 -39t-9.5 -48q0 -67 56 -105.5t153 -38.5q63 0 108 19t73.5 48t42 65t13.5 71q0 26 -9.5 48t-30 39t-53 27t-78.5 11
q-28 1 -55 1.5t-55 1.5q-34 1 -46.5 13t-12.5 38q0 20 15.5 33t33.5 13q14 0 27.5 -1t27.5 -1q85 0 135.5 42.5t50.5 117.5q0 38 -19 73.5t-50 52.5l2 2q27 -1 54.5 -3.5t56.5 -4.5q-1 5 -1.5 10.5t-0.5 10.5t0.5 10.5t1.5 10.5q-25 -5 -81 -5q-11 0 -29 1t-41 3
q-27 2 -44.5 3t-36.5 1q-39 0 -73.5 -10t-61 -30t-41.5 -50.5t-15 -72.5z" />
    <glyph glyph-name="h" unicode="h" 
d="M84 464v-181q0 -34 -0.5 -74t-1.5 -79t-2.5 -74t-3.5 -58q23 2 45 2t45 -2q-2 22 -3.5 57t-2.5 72.5t-1.5 74.5t-0.5 65q0 78 32.5 121t102.5 43q51 0 80 -38.5t29 -113.5v-61q0 -58 -2.5 -113t-4.5 -107q20 2 41 2q22 0 42 -2q-1 14 -1.5 29.5t-0.5 31.5v65q0 51 2 96.5
t2 88.5q0 52 -14.5 85.5t-37.5 53t-51.5 27.5t-56.5 8q-54 0 -93 -23.5t-67 -66.5h-2v76q0 33 0.5 72t1.5 77.5t2.5 73.5t3.5 60q-28 -5 -45 -5t-45 5q2 -25 3.5 -60.5t2.5 -74.5t1.5 -79t0.5 -74z" />
    <glyph glyph-name="i" unicode="i" horiz-adv-x="278" 
d="M88 647q0 -21 15 -36t36 -15t36 15t15 36t-15 36t-36 15t-36 -15t-15 -36zM102 286v-104q0 -45 -1.5 -94.5t-6.5 -89.5q23 2 45 2t45 -2q-5 40 -6.5 89.5t-1.5 94.5v104q0 45 1.5 94.5t6.5 92.5q-28 -5 -45 -5t-45 5q5 -43 6.5 -92.5t1.5 -94.5z" />
    <glyph glyph-name="j" unicode="j" horiz-adv-x="278" 
d="M88 647q0 -21 15 -36t36 -15t36 15t15 36t-15 36t-36 15t-36 -15t-15 -36zM102 246v-294q0 -33 -3 -66.5t-13 -60.5t-27.5 -44t-46.5 -17q-5 0 -8.5 0.5t-4.5 1.5l4 -34q48 2 85.5 23t59.5 53q23 34 27.5 69.5t4.5 77.5q0 55 -2 112t-2 115v104q0 45 1.5 94.5t6.5 92.5
q-28 -5 -45 -5t-45 5q3 -21 4.5 -48t2 -57l1 -61t0.5 -61z" />
    <glyph glyph-name="k" unicode="k" horiz-adv-x="500" 
d="M84 464v-181q0 -34 -0.5 -74t-1.5 -79t-2.5 -74t-3.5 -58q23 2 45 2t45 -2q-5 43 -6.5 85.5t-1.5 87.5v60q0 12 10 12q4 0 8 -3t7 -7q18 -19 43 -48l52.5 -62l55.5 -66.5l50 -58.5q14 2 27 2h24h26.5t30.5 -2l-123.5 136l-117.5 138q52 51 109.5 100.5l120.5 100.5
q-17 -2 -28 -3.5t-22 -1.5q-18 0 -38 5q-23 -27 -51 -57l-54.5 -56.5l-48 -46.5t-30.5 -27l-21.5 -16t-17.5 -7q-12 0 -12 19v182q0 34 0.5 74t1.5 79t2.5 74.5t3.5 60.5q-28 -5 -45 -5t-45 5q2 -25 3.5 -60.5t2.5 -74.5t1.5 -79t0.5 -74z" />
    <glyph glyph-name="l" unicode="l" horiz-adv-x="278" 
d="M102 464v-181q0 -34 -0.5 -74t-1.5 -79t-2.5 -74t-3.5 -58q23 2 45 2t45 -2q-2 23 -3.5 58t-2.5 74t-1.5 79t-0.5 74v181q0 34 0.5 74t1.5 79t2.5 74.5t3.5 60.5q-28 -5 -45 -5t-45 5q2 -25 3.5 -60.5t2.5 -74.5t1.5 -79t0.5 -74z" />
    <glyph glyph-name="m" unicode="m" horiz-adv-x="833" 
d="M78 286v-104q0 -45 -1.5 -94.5t-6.5 -89.5q23 2 45 2t45 -2q-5 40 -6.5 89.5t-1.5 94.5v85q0 78 31 121t97 43q25 0 48.5 -13.5t34.5 -32.5q6 -12 9.5 -22t5.5 -25.5t2.5 -42t0.5 -73.5q0 -55 -2 -112t-7 -112q23 2 44 2t44 -2q-2 42 -3.5 77.5t-1.5 78.5q0 71 1 111.5
t3.5 63t7 33.5t12.5 22q14 19 39 33t61 14q30 0 50 -9.5t32 -25.5t17.5 -38t5.5 -47q0 -136 -3.5 -212t-6.5 -101q11 2 22 2h22h21t22 -2q-2 29 -2.5 54t-0.5 52q0 44 1 77.5t2 60t2 46.5t1 37q0 42 -11.5 72t-32 49t-48.5 28t-61 9q-54 0 -95.5 -25.5t-65.5 -73.5h-2
q-5 21 -19 39.5t-33.5 31.5t-43.5 20.5t-49 7.5q-96 0 -149 -90h-2q0 40 3 80l-22.5 -3.5t-17.5 -1.5q-17 0 -45 5q5 -43 6.5 -92.5t1.5 -94.5z" />
    <glyph glyph-name="n" unicode="n" 
d="M402 279v-61q0 -58 -2.5 -113t-4.5 -107q20 2 41 2q22 0 42 -2q-1 14 -1.5 29.5t-0.5 31.5v65q0 51 2 96.5t2 88.5q0 52 -14.5 85.5t-37.5 53t-51.5 27.5t-56.5 8q-54 0 -93 -23.5t-67 -66.5h-2q0 40 3 80l-22.5 -3.5t-17.5 -1.5q-17 0 -45 5q5 -43 6.5 -92.5t1.5 -94.5
v-104q0 -45 -1.5 -94.5t-6.5 -89.5q23 2 45 2t45 -2q-5 40 -6.5 89.5t-1.5 94.5v85q0 78 32.5 121t102.5 43q51 0 80 -38.5t29 -113.5z" />
    <glyph glyph-name="o" unicode="o" 
d="M123 234q0 42 7.5 81t25.5 69.5t48 48.5t74 18t74 -18t48 -48.5t25.5 -69.5t7.5 -81t-7.5 -81t-25.5 -69.5t-48 -48.5t-74 -18t-74 18t-48 48.5t-25.5 69.5t-7.5 81zM35 234q0 -68 21.5 -115.5t56.5 -77t78.5 -41.5t86.5 -12q44 0 87 12t78 41.5t56.5 77t21.5 115.5
t-21.5 115.5t-56.5 77t-78 43t-87 13.5q-43 0 -86.5 -13.5t-78.5 -43t-56.5 -77t-21.5 -115.5z" />
    <glyph glyph-name="p" unicode="p" 
d="M65 182v-162q0 -32 -0.5 -71.5t-1.5 -78.5t-2.5 -74.5t-3.5 -60.5q28 5 45 5t45 -5q-2 25 -3.5 60.5t-2.5 74.5t-1.5 78.5t-0.5 71.5v63h2q47 -95 157 -95q39 0 78 14.5t69.5 45.5t49.5 78t19 111t-17.5 110.5t-46 76.5t-65.5 44.5t-75 14.5q-37 0 -66 -11t-49.5 -27.5
t-33.5 -35t-20 -34.5h-2q0 24 2 48t6 50q-28 -5 -45 -5t-45 5q2 -26 3.5 -62t2.5 -75.5t1.5 -79.5t0.5 -74zM426 238q0 -45 -8.5 -84.5t-26 -69t-44 -46t-62.5 -16.5q-146 0 -146 208q0 43 8 81.5t26 67t46.5 45.5t68.5 17q24 0 49 -9t44.5 -32.5t32 -62.5t12.5 -99z" />
    <glyph glyph-name="q" unicode="q" 
d="M491 20v162q0 34 0.5 74t1.5 79.5t2.5 75.5t3.5 62q-28 -5 -45 -5t-45 5q4 -26 6 -50t2 -48h-2q-17 46 -56 77t-107 31q-37 0 -74.5 -15t-67.5 -45.5t-49 -78t-19 -113.5q0 -69 19 -116t49 -75.5t67.5 -40t74.5 -11.5q49 0 91.5 25t71.5 82h2v-75q0 -32 -0.5 -71.5
t-1.5 -78.5t-2.5 -74.5t-3.5 -60.5q28 5 45 5t45 -5q-2 25 -3.5 60.5t-2.5 74.5t-1.5 78.5t-0.5 71.5zM417 244q0 -41 -9.5 -81t-29 -71.5t-48 -50.5t-66.5 -19q-33 0 -58.5 15.5t-42 42.5t-25 63.5t-8.5 79.5q0 66 13 108t34 66.5t46.5 34t49.5 9.5q39 0 66 -16.5t44.5 -44
t25.5 -63t8 -73.5z" />
    <glyph glyph-name="r" unicode="r" horiz-adv-x="333" 
d="M305 391l7 5q0 20 1 44.5t6 36.5q-10 4 -16.5 5t-15.5 1q-73 0 -132 -108l-2 1q0 19 0.5 40t4.5 57q-11 -2 -21 -3.5t-19 -1.5q-11 0 -21 1.5t-21 3.5q3 -66 3.5 -117t0.5 -90v-32q0 -85 -0.5 -143.5t-3.5 -92.5q20 2 42 2q20 0 40 -2q-3 22 -3.5 57.5t-0.5 102.5v110
q0 29 7 54.5t20 44t32 29.5t43 11q15 0 29.5 -5t19.5 -11z" />
    <glyph glyph-name="s" unicode="s" horiz-adv-x="389" 
d="M71 91h-12q0 -15 -6.5 -37.5t-12.5 -35.5q21 -12 52 -21t77 -9q42 0 75 12.5t56.5 35t36 50.5t12.5 57q0 42 -17.5 66t-43.5 37.5t-57 21t-57 17.5t-43.5 27.5t-17.5 49.5q0 22 8 38t20 26t27 15t30 5q34 0 57 -19t31 -43h12q2 12 9 34t15 37q-23 8 -48.5 18t-62.5 10
q-40 0 -71 -11.5t-52 -31.5t-32 -47.5t-11 -60.5q0 -42 17.5 -66t43.5 -38.5t57 -22.5t57 -18.5t43.5 -27t17.5 -47.5q0 -22 -8 -39t-21.5 -28t-31 -17t-36.5 -6q-21 0 -39.5 7t-33 17.5t-25 22.5t-15.5 22z" />
    <glyph glyph-name="t" unicode="t" horiz-adv-x="278" 
d="M162 607l-83 -35q2 -32 2.5 -62t1.5 -50q-21 0 -66 3q1 -5 1.5 -10t0.5 -10q0 -6 -0.5 -11.5t-1.5 -11.5q10 1 19 1.5t17 0.5h32q0 -56 -1 -101.5t-2.5 -83t-2.5 -69t-1 -58.5q0 -60 30 -91t93 -31q19 0 39.5 4.5t37.5 7.5v24q-10 -3 -23.5 -5t-21.5 -2q-30 0 -46 13
t-24 34.5t-9.5 48.5t-1.5 55q0 33 0.5 75t1.5 80.5t2.5 66.5t2.5 32h49q16 0 30 -0.5t27 -1.5q-1 3 -1 10v11v10q0 8 1 11q-35 -2 -65 -2.5t-41 -0.5q2 37 3.5 73.5t4.5 74.5h-5z" />
    <glyph glyph-name="u" unicode="u" 
d="M76 149q0 -78 44.5 -119.5t122.5 -41.5q48 0 89 22.5t67 70.5h2v-43q0 -11 -0.5 -21t-1.5 -19q20 2 39 2t39 -2q-2 40 -3 83t-1 88q0 81 1 153.5t6 150.5q-10 -2 -20 -3.5t-21 -1.5t-21 1.5t-21 3.5q1 -18 1.5 -38t0.5 -42v-84q0 -59 -0.5 -93t-3 -54t-6.5 -32t-11 -29
q-13 -27 -41 -45.5t-70 -18.5q-29 0 -50.5 10.5t-35.5 26.5q-13 14 -22 41.5t-9 79.5q0 75 2.5 146.5t7.5 131.5q-25 -5 -41 -5q-17 0 -42 5q1 -42 1.5 -83t0.5 -76q0 -37 -1.5 -74.5t-1.5 -90.5z" />
    <glyph glyph-name="v" unicode="v" horiz-adv-x="500" 
d="M215 -2q16 2 32 2t31 -2q43 118 95 236l106 239q-18 -5 -31 -5t-31 5l-36.5 -100.5l-38 -102.5l-39 -98.5t-39.5 -88.5q-45 100 -81.5 195.5t-67.5 194.5q-11 -2 -22 -3.5t-22 -1.5q-13 0 -25 1.5t-25 3.5q55 -121 101.5 -239z" />
    <glyph glyph-name="w" unicode="w" horiz-adv-x="778" 
d="M193 -2q12 2 28 2t28 -2l32 94.5l36 103.5l35 95.5l29 74.5q40 -99 71 -189t57 -179q5 2 12 2h14q15 0 26 -2q43 118 92.5 236t106.5 239q-17 -5 -30 -5q-12 0 -32 5l-36.5 -101l-38.5 -105.5l-36.5 -98l-30.5 -78.5l-69 193.5t-58 189.5l-14 -3.5t-14 -1.5q-12 0 -30 5
q-14 -47 -32 -102l-36 -108l-35 -99t-29 -74q-39 100 -70.5 194.5t-57.5 188.5q-13 -2 -24 -3.5t-22 -1.5q-12 0 -23.5 1.5t-23.5 3.5l50.5 -127.5l49 -132l43.5 -121.5z" />
    <glyph glyph-name="x" unicode="x" horiz-adv-x="500" 
d="M259 286l-66.5 93.5t-60.5 93.5q-14 -2 -26.5 -3.5t-26.5 -1.5t-26.5 1.5t-26.5 3.5l93.5 -123l90.5 -121l-91 -117.5l-94 -113.5q16 2 34 2q17 0 33 -2l69.5 99.5l72.5 101.5l71 -101.5l68 -99.5q14 2 27 2h24h24t27 -2l-99.5 128.5t-93.5 130.5l90.5 107.5l93.5 108.5
q-22 -5 -34 -5q-9 0 -17.5 1.5t-17.5 3.5q-33 -48 -67.5 -93.5z" />
    <glyph glyph-name="y" unicode="y" horiz-adv-x="500" 
d="M222 -3q-55 -131 -134 -262q20 5 34 5t34 -5q8 25 24.5 67.5l38.5 95l48 111l52.5 118l52 116l47 103l37 80t22.5 47.5q-20 -5 -33 -5t-33 5q-30 -96 -68.5 -196t-80.5 -188l-80 194t-69 190q-13 -2 -24 -3.5t-22 -1.5t-22 1.5t-24 3.5l21 -49l32.5 -76.5l39.5 -93
l41 -97l37.5 -90.5z" />
    <glyph glyph-name="z" unicode="z" horiz-adv-x="500" 
d="M34 9v-11q45 2 88.5 2h88.5h125t125 -2q-4 9 -4 25t4 28q-53 -5 -93 -7.5t-75 -4t-69.5 -2t-75.5 -0.5l56 75.5l82 109l92.5 122l87.5 114.5v15q-16 -1 -30.5 -2l-29.5 -2t-33 -1h-38q-94 0 -156 1t-94 4q3 -16 3 -29q0 -14 -3 -28q28 3 71.5 5.5l85.5 5t74.5 3.5t39.5 1
l-64.5 -87l-80.5 -108l-88.5 -116z" />
    <glyph glyph-name="braceleft" unicode="{" horiz-adv-x="333" 
d="M57 302v-42q36 0 54.5 -26t18.5 -68v-167q0 -68 23 -92.5t65 -24.5h58v37h-32q-26 0 -39 15t-13 65v161q0 51 -23 78t-65 42v2q42 15 65 42t23 78v164q0 50 13 65t39 15h32v37h-58q-42 0 -65 -25t-23 -92v-170q0 -42 -18.5 -68t-54.5 -26z" />
    <glyph glyph-name="bar" unicode="|" horiz-adv-x="333" 
d="M141 750v-998h52v998h-52z" />
    <glyph glyph-name="braceright" unicode="}" horiz-adv-x="333" 
d="M276 260v42q-36 0 -54.5 26t-18.5 68v170q0 67 -23 92t-65 25h-58v-37h32q26 0 39 -15t13 -65v-164q0 -51 23 -78t65 -42v-2q-42 -15 -65 -42t-23 -78v-161q0 -50 -13 -65t-39 -15h-32v-37h58q42 0 65 24.5t23 92.5v167q0 42 18.5 68t54.5 26z" />
    <glyph glyph-name="asciitilde" unicode="~" horiz-adv-x="606" 
d="M75 230l29 -44q5 12 12.5 25t19.5 24.5t28.5 18.5t38.5 7q20 0 43 -8.5t49 -22.5q32 -17 59 -27t55 -10q22 0 40 7.5t33 20t27 27.5t22 30l-29 42q-6 -12 -16 -25t-22 -24.5t-26 -18.5t-28 -7q-32 0 -58.5 14t-60.5 29q-21 10 -42.5 17.5t-51.5 7.5q-46 0 -72.5 -22.5
t-49.5 -60.5z" />
    <glyph glyph-name="nonbreakingspace" unicode="&#xa0;" horiz-adv-x="278" 
 />
    <glyph glyph-name="exclamdown" unicode="&#xa1;" horiz-adv-x="333" 
d="M109 426q0 -23 17 -40t40 -17t40 17t17 40t-17 40t-40 17t-40 -17t-17 -40zM176 300h-20l-8.5 -100l-9 -103.5t-8 -97.5l-6.5 -83l-5 -61.5t-2 -29.5q0 -27 15 -38t34 -11t34 11t15 38q0 5 -2 29.5l-5 61.5l-6.5 83.5t-8 97.5l-9 103.5z" />
    <glyph glyph-name="cent" unicode="&#xa2;" 
d="M79 234q0 -63 18.5 -107.5t49 -74t69.5 -44t79 -18.5v-7q0 -23 -1.5 -52.5t-3.5 -50.5q17 5 26 5t26 -5q-2 23 -3.5 51t-1.5 51v8q43 2 83.5 17.5t68.5 38.5q1 25 6 49l-5 3q-13 -15 -30.5 -28t-37.5 -22.5t-41 -15t-41 -5.5h-3v424q24 0 44.5 -7.5t37 -19t28 -25
t18.5 -26.5h8q4 18 9.5 34.5t12.5 31.5q-19 17 -61.5 30t-96.5 14v6q0 21 1 46.5t4 48.5q-17 -5 -26 -5t-26 5q3 -23 4 -49.5t1 -46.5v-8q-43 -5 -82 -22t-69 -47.5t-47.5 -74.5t-17.5 -102zM295 447v-415q-128 26 -128 203q0 81 30 138.5t98 73.5z" />
    <glyph glyph-name="sterling" unicode="&#xa3;" 
d="M59 59h-14q1 -8 1.5 -16t0.5 -16q0 -9 -0.5 -17t-1.5 -12q57 2 114 2h114h117.5t117.5 -2q-3 13 -3 34q0 19 3 40q-75 -3 -163 -7t-173 -4v2q39 31 68.5 88.5t29.5 133.5q0 12 -0.5 23.5t-1.5 22.5q39 0 75.5 -0.5t74.5 -1.5q-1 6 -1.5 11.5t-0.5 11.5q0 5 0.5 10.5
t1.5 10.5q-39 -2 -72.5 -3.5t-80.5 -1.5q-2 27 -4 58.5t-2 73.5q0 29 8.5 53.5t24.5 42.5t38 28.5t49 10.5q31 0 54.5 -17t32.5 -50l4 -3q10 17 19.5 30t18.5 24q-18 27 -55 40t-74 13q-33 0 -69 -11t-65.5 -38t-48.5 -72.5t-19 -114.5q0 -16 1.5 -33t3.5 -35q-29 0 -53 1
t-39 4q2 -6 2 -11v-10v-12q0 -3 -2 -11q24 0 48 0.5t49 1.5q3 -24 6 -51t3 -54q0 -38 -5.5 -69t-20.5 -52.5t-41.5 -33.5t-69.5 -12z" />
    <glyph glyph-name="currency" unicode="&#xa4;" 
d="M488 576l-55 -55q-32 26 -71 40.5t-84 14.5t-84.5 -15t-71.5 -41l-56 56l-36 -36l55 -57q-26 -31 -40.5 -70.5t-14.5 -84.5q0 -87 54 -153l-54 -55l36 -38l56 55q31 -27 71 -42t85 -15t84 14.5t71 41.5l55 -54l36 38l-53 53q26 32 40.5 71t14.5 84t-15 85t-42 71l55 56z
M474 328q0 -42 -15 -78.5t-41.5 -63.5t-62 -43t-77.5 -16t-77.5 16t-62 43t-41.5 63.5t-15 78.5t15 78.5t41.5 63.5t62 43t77.5 16t77.5 -16t62 -43t41.5 -63.5t15 -78.5z" />
    <glyph glyph-name="yen" unicode="&#xa5;" 
d="M236 331v-87h-86h-42t-43 1q1 -5 1.5 -10.5t0.5 -10.5t-0.5 -10.5t-1.5 -10.5q43 2 85.5 3t85.5 1q0 -54 -1.5 -105.5t-5.5 -103.5q23 2 46 2t46 -2q-4 46 -5.5 99t-1.5 110q45 0 87 -1t87 -3q-1 5 -1.5 10.5t-0.5 10.5t0.5 10.5t1.5 10.5q-22 -1 -44 -1h-43h-87v87
q45 0 87 -1l87 -2q-1 5 -1.5 10.5t-0.5 10.5t0.5 10.5t1.5 10.5q-42 -1 -81.5 -1.5t-81.5 -0.5l116.5 173.5t101.5 143.5q-20 -5 -34 -5t-34 5q-38 -70 -83.5 -144l-93.5 -149l-48.5 80l-50.5 85.5l-42.5 75.5t-25.5 52q-14 -2 -26.5 -3.5t-26.5 -1.5t-26.5 1.5t-26.5 3.5
l101.5 -159.5l100.5 -157.5q-42 0 -81 0.5t-81 1.5q1 -5 1.5 -10.5t0.5 -10.5t-0.5 -10.5t-1.5 -10.5l85.5 2t85.5 1z" />
    <glyph glyph-name="brokenbar" unicode="&#xa6;" horiz-adv-x="333" 
d="M141 675v-350h52v350h-52zM141 175v-348h52v348h-52z" />
    <glyph glyph-name="section" unicode="&#xa7;" horiz-adv-x="500" 
d="M394 241q0 -27 -8.5 -44t-18.5 -31q-15 10 -49 26t-105 47q-57 25 -82 48.5t-25 61.5q0 24 12.5 44t25.5 31q6 -5 13.5 -10t24 -14t46 -23l78.5 -36q25 -11 42 -21t27 -21t14.5 -25t4.5 -33zM371 578h12q2 15 10.5 32.5t18.5 26.5q-20 23 -52 42t-81 19q-44 0 -77.5 -14
t-56 -37t-33.5 -52.5t-11 -60.5q0 -21 2 -34.5t5.5 -23.5t8.5 -18.5t11 -17.5q-10 -6 -22 -17t-22.5 -27t-17.5 -36t-7 -44q0 -49 23 -79.5t57 -50.5t74.5 -34t74.5 -30t57 -37.5t23 -57.5q0 -21 -10.5 -41t-28 -36.5t-41 -27t-50.5 -10.5q-34 0 -59.5 10t-43.5 24
t-28.5 29.5t-14.5 24.5h-12q0 -14 -3 -39.5t-8 -42.5q12 -9 28.5 -17t35 -13.5t38.5 -9t39 -3.5q51 0 90 16.5t66 43.5t40.5 60.5t13.5 70.5q0 32 -10 53.5t-27 35.5q9 9 19 22.5t18.5 30.5t14.5 36.5t6 40.5q0 44 -21.5 71.5t-53.5 46t-69 32t-69 29.5t-53.5 38.5
t-21.5 58.5q0 23 10 41.5t25.5 31.5t35.5 20t41 7t38.5 -7t31 -18.5t23 -26.5t13.5 -31z" />
    <glyph glyph-name="dieresis" unicode="&#xa8;" horiz-adv-x="333" 
d="M17 637q0 -21 15 -36t36 -15t36 15t15 36t-15 36t-36 15t-36 -15t-15 -36zM214 637q0 -21 15 -36t36 -15t36 15t15 36t-15 36t-36 15t-36 -15t-15 -36z" />
    <glyph glyph-name="copyright" unicode="&#xa9;" horiz-adv-x="750" 
d="M691 340q0 -66 -24.5 -124.5t-67 -102t-100.5 -69t-124 -25.5t-124 25.5t-100.5 69t-67 102t-24.5 124.5t24.5 124.5t67 102t100.5 69t124 25.5t124 -25.5t100.5 -69t67 -102t24.5 -124.5zM17 340q0 -75 28 -140t76.5 -113t114 -75t139.5 -27t139.5 27t114 75t76.5 113
t28 140q0 74 -28 139.5t-76.5 114t-114 76.5t-139.5 28t-139.5 -28t-114 -76.5t-76.5 -114t-28 -139.5zM154 338q0 -52 17.5 -94t48.5 -72t74 -46t95 -16q48 0 87 14.5t59 26.5q0 8 1 19.5t5 20.5l-6 2q-10 -9 -24.5 -18.5t-32 -17.5t-37.5 -13.5t-41 -5.5q-43 0 -76.5 15
t-56.5 41.5t-35 63t-12 79.5q0 63 15.5 104t41 64.5t58.5 33t68 9.5q26 0 45 -6t33.5 -14t24.5 -17l17 -15l5 2q2 29 13 50q-22 13 -57 20.5t-84 7.5q-51 0 -96 -15t-78.5 -45t-52.5 -74.5t-19 -103.5z" />
    <glyph glyph-name="ordfeminine" unicode="&#xaa;" horiz-adv-x="324" 
d="M211 533v-92q-12 -13 -31 -26.5t-43 -13.5q-23 0 -39 13t-16 39q0 28 14.5 41t34.5 19t42.5 9t37.5 11zM53 641v-37h12q6 13 25 26.5t50 13.5q15 0 27.5 -3t22.5 -11t15.5 -23.5t5.5 -39.5q0 -7 -2 -11.5t-11 -8t-27.5 -7.5t-51.5 -10q-58 -10 -78.5 -29t-20.5 -54
q0 -21 8.5 -35.5t22 -23t30 -12t32.5 -3.5q31 0 55 11t46 32q2 -17 12.5 -30t30.5 -13q16 0 28 4t19 8v18q-8 -6 -19 -6q-8 0 -15 7t-7 27q0 11 1 28.5t1.5 37.5t1.5 41t1 39q0 30 -10 48.5t-26 29t-34.5 14t-35.5 3.5q-39 0 -64 -10t-45 -21z" />
    <glyph glyph-name="guillemotleft" unicode="&#xab;" horiz-adv-x="500" 
d="M367 419l-126 -187l120 -191q4 9 15 16.5t23 9.5l-106 166l111 159q-12 2 -22 9.5t-15 17.5zM222 419l-126 -187l120 -191q4 9 15 16.5t23 9.5l-106 166l111 159q-12 2 -22 9.5t-15 17.5z" />
    <glyph glyph-name="logicalnot" unicode="&#xac;" horiz-adv-x="606" 
d="M504 324v-216h52v268h-506v-52h454z" />
    <glyph glyph-name="registered" unicode="&#xae;" horiz-adv-x="750" 
d="M59 340q0 66 24.5 124.5t67 102t100.5 69t124 25.5t124 -25.5t100.5 -69t67 -102t24.5 -124.5t-24.5 -124.5t-67 -102t-100.5 -69t-124 -25.5t-124 25.5t-100.5 69t-67 102t-24.5 124.5zM17 340q0 -75 28 -140t76.5 -113t114 -75t139.5 -27t139.5 27t114 75t76.5 113
t28 140q0 74 -28 139.5t-76.5 114t-114 76.5t-139.5 28t-139.5 -28t-114 -76.5t-76.5 -114t-28 -139.5zM294 365v81q0 23 2 47l4 47q15 2 32.5 3.5t36.5 1.5q42 0 67.5 -22t25.5 -61q0 -27 -10 -46.5t-27.5 -31.5t-40 -17.5t-48.5 -5.5q-14 0 -25.5 1t-16.5 3zM242 434v-171
q0 -35 -2.5 -70t-4.5 -70q20 5 33 5q12 0 32 -5q-6 72 -6 144v70h32q45 -54 84.5 -107l76.5 -107q25 5 39 5q8 0 17.5 -1.5t20.5 -3.5v5q-15 13 -37 39.5l-47 58l-49 63.5t-44 56q19 1 42.5 9t44.5 23.5t35.5 38.5t14.5 53q0 26 -10 44.5t-27 31t-40 18.5t-49 6
q-20 0 -40.5 -2.5t-40.5 -2.5q-21 0 -41.5 1.5t-40.5 3.5q3 -28 5 -64.5t2 -70.5z" />
    <glyph glyph-name="macron" unicode="&#xaf;" horiz-adv-x="333" 
d="M30 656v-52h273v52h-273z" />
    <glyph glyph-name="degree" unicode="&#xb0;" horiz-adv-x="400" 
d="M92 527q0 23 8.5 42.5t23 34t34.5 23t42 8.5q23 0 42.5 -8.5t34 -23t23 -34t8.5 -42.5q0 -22 -8.5 -42t-23 -34.5t-34 -23t-42.5 -8.5q-22 0 -42 8.5t-34.5 23t-23 34.5t-8.5 42zM55 527q0 -30 11.5 -56.5t31 -46t46 -31t56.5 -11.5t56.5 11.5t46 31t31 46t11.5 56.5
t-11.5 56.5t-31 46t-46 31t-56.5 11.5t-56.5 -11.5t-46 -31t-31 -46t-11.5 -56.5z" />
    <glyph glyph-name="plusminus" unicode="&#xb1;" horiz-adv-x="606" 
d="M50 52v-52h506v52h-506zM50 324v-52h227v-182h52v182h227v52h-227v182h-52v-182h-227z" />
    <glyph glyph-name="twosuperior" unicode="&#xb2;" horiz-adv-x="333" 
d="M45 613l23 -30l5 2q1 9 6.5 20t15.5 20.5t25 16t35 6.5q29 0 51 -20t22 -65q0 -38 -15 -71t-42.5 -66t-66.5 -69.5l-87 -81.5v-15q35 2 69.5 3.5t69.5 1.5t70 -1.5t70 -3.5q-4 12 -4 26t4 26q-33 -3 -73 -4t-80 -1h-48l-2 5q66 58 105.5 96t60.5 65t28 48t7 45
q0 56 -37 81t-93 25q-42 0 -70 -14t-49 -45z" />
    <glyph glyph-name="threesuperior" unicode="&#xb3;" horiz-adv-x="333" 
d="M36 318l-10 -38q17 -8 42 -14.5t61 -6.5q75 0 120.5 35t45.5 92q0 27 -11 45t-27.5 28.5t-35.5 15.5t-36 6v2q15 3 30.5 11t28.5 20.5t21 30t8 39.5q0 45 -33.5 66.5t-81.5 21.5q-45 0 -68.5 -12t-37.5 -24l15 -32l5 1q7 17 26.5 30t45.5 13t46.5 -17t20.5 -52
q0 -15 -3 -30.5t-11.5 -28.5t-22 -21.5t-34.5 -8.5q-18 0 -33 7q3 -9 3 -20q0 -8 -3 -17q8 2 18.5 4t22.5 2q15 0 29.5 -4.5t26 -14.5t18.5 -26.5t7 -41.5q0 -42 -27 -69t-75 -27q-31 0 -53 12t-33 23h-5z" />
    <glyph glyph-name="acute" unicode="&#xb4;" horiz-adv-x="333" 
d="M245 708l-147 -149h42l147 94q12 8 24 18.5t12 28.5q0 16 -11.5 24t-21.5 8q-21 0 -45 -24z" />
    <glyph glyph-name="mu" unicode="&#xb5;" 
d="M242 -12q48 0 89.5 22.5t67.5 70.5h2v-43q0 -11 -0.5 -21t-1.5 -19q20 2 39 2t39 -2q-2 40 -3 83t-1 88q0 81 1 153.5t6 150.5q-10 -2 -20 -3.5t-21 -1.5t-21 1.5t-21 3.5q1 -18 1.5 -38t0.5 -42v-84q0 -59 -0.5 -93t-3 -54t-6.5 -32t-11 -29q-13 -27 -41 -45.5
t-70 -18.5q-29 0 -50.5 10.5t-35.5 26.5q-13 14 -22 41.5t-9 79.5q0 75 2.5 146.5t7.5 131.5q-25 -5 -41 -5q-17 0 -42 5q0 -45 0.5 -90.5l1 -95.5t1 -106.5t0.5 -122.5q0 -47 -0.5 -86.5t-1.5 -78t-1.5 -77t-0.5 -81.5q25 5 42 5t42 -5q-8 69 -9 138t-1 142q18 -15 41 -21
t51 -6z" />
    <glyph glyph-name="paragraph" unicode="&#xb6;" horiz-adv-x="800" 
d="M499 639v-751h36v756l75 12v24h-261q-94 0 -146.5 -45t-52.5 -139q0 -45 15 -83t45.5 -65t77.5 -42t111 -15v-403h36v741z" />
    <glyph glyph-name="periodcentered" unicode="&#xb7;" horiz-adv-x="278" 
d="M79 306q0 -25 17.5 -42.5t42.5 -17.5t42.5 17.5t17.5 42.5t-17.5 42.5t-42.5 17.5t-42.5 -17.5t-17.5 -42.5z" />
    <glyph glyph-name="cedilla" unicode="&#xb8;" horiz-adv-x="333" 
d="M43 -172l-14 -32q14 -5 36 -11t53 -6q24 0 45.5 5.5t38 16t26 26.5t9.5 37q0 32 -22 51.5t-61 19.5q-10 0 -16.5 -1.5t-12.5 -3.5l25 70h-35l-41 -102l7 -7q10 7 43 7q21 0 36 -9t15 -31q0 -20 -17.5 -31t-42.5 -11q-23 0 -42 3.5t-30 8.5z" />
    <glyph glyph-name="onesuperior" unicode="&#xb9;" horiz-adv-x="333" 
d="M147 616v-200q0 -38 -1 -76t-4 -80q20 5 34 5t34 -5q-6 80 -6 156v100q0 80 6 156h-11q-31 -17 -70.5 -33.5t-77.5 -28.5v-10q13 -6 20 -19l72 37z" />
    <glyph glyph-name="ordmasculine" unicode="&#xba;" horiz-adv-x="340" 
d="M76 522q0 24 5 46.5t16 40t29 28.5t45 11q26 0 43.5 -11t28.5 -28.5t16 -40t5 -46.5q0 -23 -5 -45.5t-16 -40t-28.5 -28.5t-43.5 -11q-27 0 -45 11t-29 28.5t-16 40t-5 45.5zM10 522q0 -41 14 -69.5t37 -46t51.5 -25.5t58.5 -8q29 0 57 8t51 25.5t37 46t14 69.5t-14 69.5
t-37 46.5t-51 26t-57 8q-30 0 -58.5 -8t-51.5 -26t-37 -46.5t-14 -69.5z" />
    <glyph glyph-name="guillemotright" unicode="&#xbb;" horiz-adv-x="500" 
d="M101 396l106 -166l-111 -159q12 -2 22 -9.5t15 -17.5l126 187l-120 191q-4 -9 -15 -16.5t-23 -9.5zM246 396l106 -166l-111 -159q12 -2 22 -9.5t15 -17.5l126 187l-120 191q-4 -9 -15 -16.5t-23 -9.5z" />
    <glyph glyph-name="onequarter" unicode="&#xbc;" horiz-adv-x="834" 
d="M144 616v-200q0 -38 -1 -76t-4 -80q20 5 34 5t34 -5q-6 80 -6 156v100q0 80 6 156h-11q-31 -17 -70.5 -33.5t-77.5 -28.5v-10q13 -6 20 -19l72 37zM491 684l-277 -709q15 5 23 5t23 -5l277 709q-15 -5 -23 -5t-23 5zM653 338v-193h-139l-2 5q29 48 66 95.5l73 95.5z
M451 126v-22q14 1 36.5 2t49.5 1.5t57 0.5h59q0 -29 -1.5 -56.5t-3.5 -53.5q16 2 33 2t33 -2q-2 26 -3 53.5t-1 56.5q38 0 58 -4q-4 11 -4 24q0 12 4 23q-11 -3 -27.5 -4.5t-30.5 -1.5q0 64 0.5 128t4.5 128q-9 -4 -26 -4t-26 4l-106 -137.5z" />
    <glyph glyph-name="onehalf" unicode="&#xbd;" horiz-adv-x="834" 
d="M505 348l23 -30l5 2q1 9 6.5 20t15.5 20.5t25 16t35 6.5q29 0 51 -20t22 -65q0 -38 -15 -71t-42.5 -66t-66.5 -69.5l-87 -81.5v-12q35 2 69.5 2h69.5h70t70 -2q-4 9 -4 23t4 26q-33 -3 -73 -4t-80 -1h-48l-2 5q66 58 105.5 96t60.5 65t28 48t7 45q0 56 -37 81t-93 25
q-42 0 -70 -14t-49 -45zM144 616v-200q0 -38 -1 -76t-4 -80q20 5 34 5t34 -5q-6 80 -6 156v100q0 80 6 156h-11q-31 -17 -70.5 -33.5t-77.5 -28.5v-10q13 -6 20 -19l72 37zM488 684l-277 -709q15 5 23 5t23 -5l277 709q-15 -5 -23 -5t-23 5z" />
    <glyph glyph-name="threequarters" unicode="&#xbe;" horiz-adv-x="834" 
d="M34 318l-10 -38q17 -8 42 -14.5t61 -6.5q75 0 120.5 35t45.5 92q0 27 -11 45t-27.5 28.5t-35.5 15.5t-36 6v2q15 3 30.5 11t28.5 20.5t21 30t8 39.5q0 45 -33.5 66.5t-81.5 21.5q-45 0 -68.5 -12t-37.5 -24l15 -32l5 1q7 17 26.5 30t45.5 13t46.5 -17t20.5 -52
q0 -15 -3 -30.5t-11.5 -28.5t-22 -21.5t-34.5 -8.5q-18 0 -33 7q3 -9 3 -20q0 -8 -3 -17q8 2 18.5 4t22.5 2q15 0 29.5 -4.5t26 -14.5t18.5 -26.5t7 -41.5q0 -42 -27 -69t-75 -27q-31 0 -53 12t-33 23h-5zM523 684l-277 -709q15 5 23 5t23 -5l277 709q-15 -5 -23 -5t-23 5z
M673 338v-193h-139l-2 5q29 48 66 95.5l73 95.5zM471 126v-22q14 1 36.5 2t49.5 1.5t57 0.5h59q0 -29 -1.5 -56.5t-3.5 -53.5q16 2 33 2t33 -2q-2 26 -3 53.5t-1 56.5q38 0 58 -4q-4 11 -4 24q0 12 4 23q-11 -3 -27.5 -4.5t-30.5 -1.5q0 64 0.5 128t4.5 128q-9 -4 -26 -4
t-26 4l-106 -137.5z" />
    <glyph glyph-name="questiondown" unicode="&#xbf;" horiz-adv-x="389" 
d="M150 426q0 -23 17 -40t40 -17t40 17t17 40t-17 40t-40 17t-40 -17t-17 -40zM144 264l6 -4q4 2 13 5.5t21 3.5q26 0 39 -19.5t13 -39.5q0 -26 -13 -49t-33 -45t-43 -44t-43 -47t-33 -53.5t-13 -63.5q0 -27 9.5 -51t28.5 -42t46.5 -28.5t63.5 -10.5q35 0 59 10.5t44 22.5
l-6 50q-17 -20 -40.5 -33t-50.5 -13q-16 0 -31.5 5.5t-27.5 16t-19.5 25.5t-7.5 35q0 27 12.5 50.5t32 43.5l41.5 41.5t41.5 44.5t32 50.5t12.5 60.5q0 31 -12 52t-29 34t-35.5 19t-30.5 6q-20 0 -35 -5q-1 -7 -4.5 -15t-7.5 -13z" />
    <glyph glyph-name="Agrave" unicode="&#xc0;" horiz-adv-x="667" 
d="M213 825l147 -94h42l-147 149q-24 24 -45 24q-10 0 -21.5 -8t-11.5 -24q0 -18 12 -28.5t24 -18.5zM316 563l111 -254q-28 -1 -56 -1.5t-56 -0.5q-26 0 -54 1t-54 1zM349 698h-19l-155 -352l-158 -348q17 2 37 2t37 -2q13 46 39 116.5t58 148.5q31 1 61 1.5t61 0.5
q33 0 66 -0.5t65 -1.5l28 -69.5l29.5 -72t26.5 -68t19 -55.5q14 2 26.5 2h26.5h26.5t26.5 -2q-13 24 -33.5 70l-46 104.5l-54.5 126.5l-58 137l-57 136.5z" />
    <glyph glyph-name="Aacute" unicode="&#xc1;" horiz-adv-x="667" 
d="M412 880l-147 -149h42l147 94q12 8 24 18.5t12 28.5q0 16 -11.5 24t-21.5 8q-21 0 -45 -24zM316 563l111 -254q-28 -1 -56 -1.5t-56 -0.5q-26 0 -54 1t-54 1zM349 698h-19l-155 -352l-158 -348q17 2 37 2t37 -2q13 46 39 116.5t58 148.5q31 1 61 1.5t61 0.5q33 0 66 -0.5
t65 -1.5l28 -69.5l29.5 -72t26.5 -68t19 -55.5q14 2 26.5 2h26.5h26.5t26.5 -2q-13 24 -33.5 70l-46 104.5l-54.5 126.5l-58 137l-57 136.5z" />
    <glyph glyph-name="Acircumflex" unicode="&#xc2;" horiz-adv-x="667" 
d="M333 836l120 -105h37l-123 167h-67l-123 -167h37zM316 563l111 -254q-28 -1 -56 -1.5t-56 -0.5q-26 0 -54 1t-54 1zM349 698h-19l-155 -352l-158 -348q17 2 37 2t37 -2q13 46 39 116.5t58 148.5q31 1 61 1.5t61 0.5q33 0 66 -0.5t65 -1.5l28 -69.5l29.5 -72t26.5 -68
t19 -55.5q14 2 26.5 2h26.5h26.5t26.5 -2q-13 24 -33.5 70l-46 104.5l-54.5 126.5l-58 137l-57 136.5z" />
    <glyph glyph-name="Atilde" unicode="&#xc3;" horiz-adv-x="667" 
d="M169 756h30q9 26 19.5 36t33.5 10q12 0 25.5 -4.5t39.5 -18.5q23 -13 40.5 -18t31.5 -5q30 0 50 12t32.5 29.5t18.5 35.5t8 30h-29q-6 -20 -20 -35t-37 -15q-13 0 -25.5 4.5t-40.5 18.5q-28 13 -42 18t-31 5q-24 0 -42 -9.5t-31 -24.5t-20.5 -33t-10.5 -36zM316 563
l111 -254q-28 -1 -56 -1.5t-56 -0.5q-26 0 -54 1t-54 1zM349 698h-19l-155 -352l-158 -348q17 2 37 2t37 -2q13 46 39 116.5t58 148.5q31 1 61 1.5t61 0.5q33 0 66 -0.5t65 -1.5l28 -69.5l29.5 -72t26.5 -68t19 -55.5q14 2 26.5 2h26.5h26.5t26.5 -2q-13 24 -33.5 70
l-46 104.5l-54.5 126.5l-58 137l-57 136.5z" />
    <glyph glyph-name="Adieresis" unicode="&#xc4;" horiz-adv-x="667" 
d="M184 809q0 -21 15 -36t36 -15t36 15t15 36t-15 36t-36 15t-36 -15t-15 -36zM381 809q0 -21 15 -36t36 -15t36 15t15 36t-15 36t-36 15t-36 -15t-15 -36zM316 563l111 -254q-28 -1 -56 -1.5t-56 -0.5q-26 0 -54 1t-54 1zM349 698h-19l-155 -352l-158 -348q17 2 37 2t37 -2
q13 46 39 116.5t58 148.5q31 1 61 1.5t61 0.5q33 0 66 -0.5t65 -1.5l28 -69.5l29.5 -72t26.5 -68t19 -55.5q14 2 26.5 2h26.5h26.5t26.5 -2q-13 24 -33.5 70l-46 104.5l-54.5 126.5l-58 137l-57 136.5z" />
    <glyph glyph-name="Aring" unicode="&#xc5;" horiz-adv-x="667" 
d="M273 817q0 25 17.5 42.5t43.5 17.5q25 0 42.5 -17.5t17.5 -42.5t-17.5 -42.5t-43.5 -17.5q-25 0 -42.5 17.5t-17.5 42.5zM231 817q0 -21 8 -39.5t22 -32.5t32.5 -22t39.5 -8t40 8t33 22t22 32.5t8 39.5t-8 39.5t-22 32.5t-32.5 22t-39.5 8t-40 -8t-33 -22t-22 -32.5
t-8 -39.5zM316 563l111 -254q-28 -1 -56 -1.5t-56 -0.5q-26 0 -54 1t-54 1zM349 698h-19l-155 -352l-158 -348q17 2 37 2t37 -2q13 46 39 116.5t58 148.5q31 1 61 1.5t61 0.5q33 0 66 -0.5t65 -1.5l28 -69.5l29.5 -72t26.5 -68t19 -55.5q14 2 26.5 2h26.5h26.5t26.5 -2
q-13 24 -33.5 70l-46 104.5l-54.5 126.5l-58 137l-57 136.5z" />
    <glyph glyph-name="AE" unicode="&#xc6;" horiz-adv-x="833" 
d="M451 607v-319l-209 6l198 313h11zM220 252l231 -6q0 -63 -1 -125t-7 -123q43 2 85.5 2h85.5h84t87 -2q-2 5 -3.5 11.5t-1.5 14.5t1.5 14.5l3.5 14.5q-24 -4 -81 -7.5t-166 -3.5q-2 49 -3.5 98t-1.5 98v101q61 0 98.5 -0.5t61 -1.5t37.5 -2.5t28 -2.5q-5 17 -5 28t5 28
q-13 -1 -27 -2.5t-37.5 -2.5t-61 -1.5t-99.5 -0.5v82q0 45 1.5 87.5t3.5 87.5q63 0 103 -1t65.5 -3.5t41 -5t30.5 -5.5q-5 18 -5 31t5 31q-42 -2 -83 -3.5t-83 -1.5q-43 0 -85 1.5t-84 3.5l-113.5 -180l-119 -185.5l-115 -175l-98.5 -146.5q10 2 21 2h21q21 0 41 -2
q61 124 140 254z" />
    <glyph glyph-name="Ccedilla" unicode="&#xc7;" horiz-adv-x="667" 
d="M360 -15l-37 -93l7 -7q10 7 43 7q21 0 36 -9t15 -31q0 -20 -17.5 -31t-42.5 -11q-23 0 -42 3.5t-30 8.5l-14 -32q14 -5 36 -11t53 -6q24 0 45.5 5.5t38 16t26 26.5t9.5 37q0 32 -22 51.5t-61 19.5q-10 0 -16.5 -1.5t-12.5 -3.5l21 61h12q37 0 71 6t61.5 13.5t47 17
t28.5 17.5l9 59l-4 4q-14 -11 -34.5 -25.5t-46 -27t-56 -21.5t-66.5 -9q-59 0 -109.5 19t-88 58.5t-58.5 100t-21 143.5t21 143.5t58.5 100t88 58.5t109.5 19q36 0 66 -9.5t54 -23.5t42 -29t28 -27l6 2q3 16 8 40t13 38q-42 19 -96.5 32.5t-120.5 13.5q-83 0 -152 -24
t-118.5 -70t-77 -112.5t-27.5 -151.5q0 -79 23.5 -142t65.5 -108.5t100.5 -71.5t128.5 -33z" />
    <glyph glyph-name="Egrave" unicode="&#xc8;" horiz-adv-x="500" 
d="M146 825l147 -94h42l-147 149q-24 24 -45 24q-10 0 -21.5 -8t-11.5 -24q0 -18 12 -28.5t24 -18.5zM98 427v-172q0 -66 -2.5 -129.5t-5.5 -127.5q46 2 91 2h91h90.5t89.5 -2q-3 10 -3 26q0 7 0.5 15.5t2.5 15.5q-24 -5 -56.5 -7.5t-69 -4t-74.5 -1.5h-70q-1 19 -1.5 56
t-0.5 94v60v39q0 16 0.5 26.5t0.5 19.5q18 0 48.5 -0.5t65 -1t69 -2.5t60.5 -5q-3 15 -3 30q0 16 3 31q-22 -2 -46.5 -3.5t-53.5 -3t-64 -2.5t-79 -1q0 19 -0.5 56t-0.5 76q0 37 1.5 66t2.5 61q49 0 84 -1.5t64.5 -3.5t56 -4t58.5 -4q-3 15 -3 30t3 30q-45 -2 -89 -3.5
t-89 -1.5t-89.5 1.5t-89.5 3.5q3 -64 5.5 -128t2.5 -130z" />
    <glyph glyph-name="Eacute" unicode="&#xc9;" horiz-adv-x="500" 
d="M345 880l-147 -149h42l147 94q12 8 24 18.5t12 28.5q0 16 -11.5 24t-21.5 8q-21 0 -45 -24zM98 427v-172q0 -66 -2.5 -129.5t-5.5 -127.5q46 2 91 2h91h90.5t89.5 -2q-3 10 -3 26q0 7 0.5 15.5t2.5 15.5q-24 -5 -56.5 -7.5t-69 -4t-74.5 -1.5h-70q-1 19 -1.5 56t-0.5 94
v60v39q0 16 0.5 26.5t0.5 19.5q18 0 48.5 -0.5t65 -1t69 -2.5t60.5 -5q-3 15 -3 30q0 16 3 31q-22 -2 -46.5 -3.5t-53.5 -3t-64 -2.5t-79 -1q0 19 -0.5 56t-0.5 76q0 37 1.5 66t2.5 61q49 0 84 -1.5t64.5 -3.5t56 -4t58.5 -4q-3 15 -3 30t3 30q-45 -2 -89 -3.5t-89 -1.5
t-89.5 1.5t-89.5 3.5q3 -64 5.5 -128t2.5 -130z" />
    <glyph glyph-name="Ecircumflex" unicode="&#xca;" horiz-adv-x="500" 
d="M266 836l120 -105h37l-123 167h-67l-123 -167h37zM98 427v-172q0 -66 -2.5 -129.5t-5.5 -127.5q46 2 91 2h91h90.5t89.5 -2q-3 10 -3 26q0 7 0.5 15.5t2.5 15.5q-24 -5 -56.5 -7.5t-69 -4t-74.5 -1.5h-70q-1 19 -1.5 56t-0.5 94v60v39q0 16 0.5 26.5t0.5 19.5
q18 0 48.5 -0.5t65 -1t69 -2.5t60.5 -5q-3 15 -3 30q0 16 3 31q-22 -2 -46.5 -3.5t-53.5 -3t-64 -2.5t-79 -1q0 19 -0.5 56t-0.5 76q0 37 1.5 66t2.5 61q49 0 84 -1.5t64.5 -3.5t56 -4t58.5 -4q-3 15 -3 30t3 30q-45 -2 -89 -3.5t-89 -1.5t-89.5 1.5t-89.5 3.5
q3 -64 5.5 -128t2.5 -130z" />
    <glyph glyph-name="Edieresis" unicode="&#xcb;" horiz-adv-x="500" 
d="M117 809q0 -21 15 -36t36 -15t36 15t15 36t-15 36t-36 15t-36 -15t-15 -36zM314 809q0 -21 15 -36t36 -15t36 15t15 36t-15 36t-36 15t-36 -15t-15 -36zM98 427v-172q0 -66 -2.5 -129.5t-5.5 -127.5q46 2 91 2h91h90.5t89.5 -2q-3 10 -3 26q0 7 0.5 15.5t2.5 15.5
q-24 -5 -56.5 -7.5t-69 -4t-74.5 -1.5h-70q-1 19 -1.5 56t-0.5 94v60v39q0 16 0.5 26.5t0.5 19.5q18 0 48.5 -0.5t65 -1t69 -2.5t60.5 -5q-3 15 -3 30q0 16 3 31q-22 -2 -46.5 -3.5t-53.5 -3t-64 -2.5t-79 -1q0 19 -0.5 56t-0.5 76q0 37 1.5 66t2.5 61q49 0 84 -1.5
t64.5 -3.5t56 -4t58.5 -4q-3 15 -3 30t3 30q-45 -2 -89 -3.5t-89 -1.5t-89.5 1.5t-89.5 3.5q3 -64 5.5 -128t2.5 -130z" />
    <glyph glyph-name="Igrave" unicode="&#xcc;" horiz-adv-x="278" 
d="M19 825l147 -94h42l-147 149q-24 24 -45 24q-10 0 -20 -8t-10 -24q0 -18 10.5 -28.5t22.5 -18.5zM98 426v-172q0 -66 -2.5 -130t-5.5 -126q23 2 49 2t49 -2q-3 62 -5.5 126t-2.5 130v172q0 66 2.5 129.5t5.5 129.5q-13 -2 -25 -3.5t-24 -1.5t-24 1.5t-25 3.5
q3 -66 5.5 -129.5t2.5 -129.5z" />
    <glyph glyph-name="Iacute" unicode="&#xcd;" horiz-adv-x="278" 
d="M218 880l-147 -149h42l147 94q12 8 24 18.5t12 28.5q0 16 -11.5 24t-21.5 8q-21 0 -45 -24zM98 426v-172q0 -66 -2.5 -130t-5.5 -126q23 2 49 2t49 -2q-3 62 -5.5 126t-2.5 130v172q0 66 2.5 129.5t5.5 129.5q-13 -2 -25 -3.5t-24 -1.5t-24 1.5t-25 3.5q3 -66 5.5 -129.5
t2.5 -129.5z" />
    <glyph glyph-name="Icircumflex" unicode="&#xce;" horiz-adv-x="278" 
d="M139 836l120 -105h37l-123 167h-67l-120 -167h34zM98 426v-172q0 -66 -2.5 -130t-5.5 -126q23 2 49 2t49 -2q-3 62 -5.5 126t-2.5 130v172q0 66 2.5 129.5t5.5 129.5q-13 -2 -25 -3.5t-24 -1.5t-24 1.5t-25 3.5q3 -66 5.5 -129.5t2.5 -129.5z" />
    <glyph glyph-name="Idieresis" unicode="&#xcf;" horiz-adv-x="278" 
d="M-7 809q0 -21 13.5 -36t34.5 -15t36 15t15 36t-15 36t-36 15t-34.5 -15t-13.5 -36zM187 809q0 -21 15 -36t36 -15t36 15t15 36t-15 36t-36 15t-36 -15t-15 -36zM98 426v-172q0 -66 -2.5 -130t-5.5 -126q23 2 49 2t49 -2q-3 62 -5.5 126t-2.5 130v172q0 66 2.5 129.5
t5.5 129.5q-13 -2 -25 -3.5t-24 -1.5t-24 1.5t-25 3.5q3 -66 5.5 -129.5t2.5 -129.5z" />
    <glyph glyph-name="Eth" unicode="&#xd0;" horiz-adv-x="778" 
d="M98 426v-24h-47q-11 0 -24 0.5t-27 1.5q1 -5 1.5 -10t0.5 -10t-0.5 -10.5t-1.5 -10.5q14 1 27 1.5t24 0.5h47v-111q0 -66 -2.5 -130t-5.5 -126q34 2 67 2h67t67 -1t67 -1q59 0 123.5 17.5t118 59.5t88 110.5t34.5 168.5q0 77 -18.5 138.5t-58.5 104t-102.5 65.5
t-150.5 23q-38 0 -75.5 -2.5t-75.5 -2.5t-75.5 1.5t-75.5 3.5q3 -66 5.5 -129.5t2.5 -129.5zM180 254v111q48 0 97 -1t95 -3q-3 12 -3 23t3 21q-46 -2 -95 -2.5t-97 -0.5v24q0 54 1.5 106.5t4.5 100.5q31 4 70 7t84 3q62 0 114 -12.5t89.5 -45t59 -88.5t21.5 -143
q0 -99 -27.5 -161.5t-71 -98.5t-98.5 -49t-110 -13q-38 0 -74 2.5t-57 7.5q-6 104 -6 212z" />
    <glyph glyph-name="Ntilde" unicode="&#xd1;" horiz-adv-x="778" 
d="M241 756h30q9 26 19.5 36t33.5 10q12 0 25.5 -4.5t39.5 -18.5q23 -13 40.5 -18t31.5 -5q30 0 50 12t32.5 29.5t18.5 35.5t8 30h-29q-6 -20 -20 -35t-37 -15q-13 0 -25.5 4.5t-40.5 18.5q-28 13 -42 18t-31 5q-24 0 -42 -9.5t-31 -24.5t-20.5 -33t-10.5 -36zM661 -15h14
v33q0 24 -0.5 56.5t-1 70l-1 74.5t-0.5 71v60q0 29 2 77t4.5 98t5 94t4.5 66q-20 -5 -32 -5q-14 0 -34 5q5 -88 6.5 -187.5t1.5 -204.5v-136l-107.5 111.5l-130 139l-138 149l-130.5 141.5h-16q2 -34 2.5 -103t0.5 -165q0 -33 -1 -75t-2.5 -86t-4 -88l-4.5 -81.5t-4.5 -64.5
t-4.5 -37q17 2 37 2q19 0 35 -2q-1 8 -2 30.5t-2 52.5t-2 65t-1.5 69l-1 65t-0.5 52q0 81 1 128t2 75l260 -277.5z" />
    <glyph glyph-name="Ograve" unicode="&#xd2;" horiz-adv-x="833" 
d="M296 825l147 -94h42l-147 149q-24 24 -45 24q-10 0 -21.5 -8t-11.5 -24q0 -18 12 -28.5t24 -18.5zM42 340q0 -85 27.5 -151.5t77 -112.5t118.5 -68.5t151 -22.5q83 0 152 22.5t118.5 68.5t77 112.5t27.5 151.5t-27.5 151.5t-77 112.5t-118.5 70t-152 24q-82 0 -151 -24
t-118.5 -70t-77 -112.5t-27.5 -151.5zM693 340q0 -83 -21 -143.5t-58.5 -100t-88 -58.5t-109.5 -19q-58 0 -108.5 19t-88 58.5t-58.5 100t-21 143.5t21 143.5t58.5 100t88 58.5t108.5 19q59 0 109.5 -19t88 -58.5t58.5 -100t21 -143.5z" />
    <glyph glyph-name="Oacute" unicode="&#xd3;" horiz-adv-x="833" 
d="M495 880l-147 -149h42l147 94q12 8 24 18.5t12 28.5q0 16 -11.5 24t-21.5 8q-21 0 -45 -24zM42 340q0 -85 27.5 -151.5t77 -112.5t118.5 -68.5t151 -22.5q83 0 152 22.5t118.5 68.5t77 112.5t27.5 151.5t-27.5 151.5t-77 112.5t-118.5 70t-152 24q-82 0 -151 -24
t-118.5 -70t-77 -112.5t-27.5 -151.5zM693 340q0 -83 -21 -143.5t-58.5 -100t-88 -58.5t-109.5 -19q-58 0 -108.5 19t-88 58.5t-58.5 100t-21 143.5t21 143.5t58.5 100t88 58.5t108.5 19q59 0 109.5 -19t88 -58.5t58.5 -100t21 -143.5z" />
    <glyph glyph-name="Ocircumflex" unicode="&#xd4;" horiz-adv-x="833" 
d="M416 836l120 -105h37l-123 167h-67l-123 -167h37zM42 340q0 -85 27.5 -151.5t77 -112.5t118.5 -68.5t151 -22.5q83 0 152 22.5t118.5 68.5t77 112.5t27.5 151.5t-27.5 151.5t-77 112.5t-118.5 70t-152 24q-82 0 -151 -24t-118.5 -70t-77 -112.5t-27.5 -151.5zM693 340
q0 -83 -21 -143.5t-58.5 -100t-88 -58.5t-109.5 -19q-58 0 -108.5 19t-88 58.5t-58.5 100t-21 143.5t21 143.5t58.5 100t88 58.5t108.5 19q59 0 109.5 -19t88 -58.5t58.5 -100t21 -143.5z" />
    <glyph glyph-name="Otilde" unicode="&#xd5;" horiz-adv-x="833" 
d="M252 756h30q9 26 19.5 36t33.5 10q12 0 25.5 -4.5t39.5 -18.5q23 -13 40.5 -18t31.5 -5q30 0 50 12t32.5 29.5t18.5 35.5t8 30h-29q-6 -20 -20 -35t-37 -15q-13 0 -25.5 4.5t-40.5 18.5q-28 13 -42 18t-31 5q-24 0 -42 -9.5t-31 -24.5t-20.5 -33t-10.5 -36zM42 340
q0 -85 27.5 -151.5t77 -112.5t118.5 -68.5t151 -22.5q83 0 152 22.5t118.5 68.5t77 112.5t27.5 151.5t-27.5 151.5t-77 112.5t-118.5 70t-152 24q-82 0 -151 -24t-118.5 -70t-77 -112.5t-27.5 -151.5zM693 340q0 -83 -21 -143.5t-58.5 -100t-88 -58.5t-109.5 -19
q-58 0 -108.5 19t-88 58.5t-58.5 100t-21 143.5t21 143.5t58.5 100t88 58.5t108.5 19q59 0 109.5 -19t88 -58.5t58.5 -100t21 -143.5z" />
    <glyph glyph-name="Odieresis" unicode="&#xd6;" horiz-adv-x="833" 
d="M267 809q0 -21 15 -36t36 -15t36 15t15 36t-15 36t-36 15t-36 -15t-15 -36zM464 809q0 -21 15 -36t36 -15t36 15t15 36t-15 36t-36 15t-36 -15t-15 -36zM42 340q0 -85 27.5 -151.5t77 -112.5t118.5 -68.5t151 -22.5q83 0 152 22.5t118.5 68.5t77 112.5t27.5 151.5
t-27.5 151.5t-77 112.5t-118.5 70t-152 24q-82 0 -151 -24t-118.5 -70t-77 -112.5t-27.5 -151.5zM693 340q0 -83 -21 -143.5t-58.5 -100t-88 -58.5t-109.5 -19q-58 0 -108.5 19t-88 58.5t-58.5 100t-21 143.5t21 143.5t58.5 100t88 58.5t108.5 19q59 0 109.5 -19t88 -58.5
t58.5 -100t21 -143.5z" />
    <glyph glyph-name="multiply" unicode="&#xd7;" horiz-adv-x="606" 
d="M266 253l-184 -184l37 -37l184 184l185 -184l36 37l-184 184l184 185l-36 36l-185 -184l-184 184l-37 -36z" />
    <glyph glyph-name="Oslash" unicode="&#xd8;" horiz-adv-x="833" 
d="M220 96l413 464q29 -40 44.5 -94t15.5 -126q0 -83 -21 -143.5t-58.5 -100t-88 -58.5t-109.5 -19q-60 0 -109.5 19t-86.5 58zM42 340q0 -91 30 -159t84 -113l-25 -28t-27.5 -29.5l-25 -25t-16.5 -15.5q17 -10 28 -24q5 9 15.5 22.5t23.5 27.5l26.5 28.5l23.5 25.5
q96 -65 237 -65q83 0 152 22.5t118.5 68.5t77 112.5t27.5 151.5q0 90 -29.5 157.5t-83.5 113.5l22.5 25l27 29.5l25.5 26.5t18 16q-16 10 -28 24q-3 -6 -13.5 -20t-24 -29.5l-27 -30.5t-22.5 -24q-94 70 -240 70q-82 0 -151 -24t-118.5 -70t-77 -112.5t-27.5 -151.5z
M615 582l-413 -464q-29 38 -45.5 93.5t-16.5 128.5q0 83 21 143.5t58.5 100t88 58.5t108.5 19q60 0 111 -18.5t88 -60.5z" />
    <glyph glyph-name="Ugrave" unicode="&#xd9;" horiz-adv-x="778" 
d="M269 825l147 -94h42l-147 149q-24 24 -45 24q-10 0 -21.5 -8t-11.5 -24q0 -18 12 -28.5t24 -18.5zM619 360q0 -31 -1 -68t-7 -74t-19.5 -71t-37.5 -60t-61.5 -42t-92.5 -16q-56 0 -94 13.5t-63 37t-38.5 55t-19.5 66t-7 71t-1 70.5q0 56 1 108t3 97t4 80.5t4 57.5
q-11 -2 -21.5 -3.5t-21.5 -1.5q-12 0 -26 1.5t-26 3.5q2 -45 4 -110t2 -149q0 -38 -2.5 -74.5t-2.5 -83.5q0 -147 68 -215t218 -68q68 0 120.5 19t88.5 56t55.5 90t20.5 120q1 55 3 113.5l4 114t5 104t6 83.5q-17 -5 -30 -5q-10 0 -20 1.5t-21 3.5q4 -29 5 -106t1 -219z" />
    <glyph glyph-name="Uacute" unicode="&#xda;" horiz-adv-x="778" 
d="M468 880l-147 -149h42l147 94q12 8 24 18.5t12 28.5q0 16 -11.5 24t-21.5 8q-21 0 -45 -24zM619 360q0 -31 -1 -68t-7 -74t-19.5 -71t-37.5 -60t-61.5 -42t-92.5 -16q-56 0 -94 13.5t-63 37t-38.5 55t-19.5 66t-7 71t-1 70.5q0 56 1 108t3 97t4 80.5t4 57.5
q-11 -2 -21.5 -3.5t-21.5 -1.5q-12 0 -26 1.5t-26 3.5q2 -45 4 -110t2 -149q0 -38 -2.5 -74.5t-2.5 -83.5q0 -147 68 -215t218 -68q68 0 120.5 19t88.5 56t55.5 90t20.5 120q1 55 3 113.5l4 114t5 104t6 83.5q-17 -5 -30 -5q-10 0 -20 1.5t-21 3.5q4 -29 5 -106t1 -219z" />
    <glyph glyph-name="Ucircumflex" unicode="&#xdb;" horiz-adv-x="778" 
d="M389 836l120 -105h37l-123 167h-67l-123 -167h37zM619 360q0 -31 -1 -68t-7 -74t-19.5 -71t-37.5 -60t-61.5 -42t-92.5 -16q-56 0 -94 13.5t-63 37t-38.5 55t-19.5 66t-7 71t-1 70.5q0 56 1 108t3 97t4 80.5t4 57.5q-11 -2 -21.5 -3.5t-21.5 -1.5q-12 0 -26 1.5t-26 3.5
q2 -45 4 -110t2 -149q0 -38 -2.5 -74.5t-2.5 -83.5q0 -147 68 -215t218 -68q68 0 120.5 19t88.5 56t55.5 90t20.5 120q1 55 3 113.5l4 114t5 104t6 83.5q-17 -5 -30 -5q-10 0 -20 1.5t-21 3.5q4 -29 5 -106t1 -219z" />
    <glyph glyph-name="Udieresis" unicode="&#xdc;" horiz-adv-x="778" 
d="M240 809q0 -21 15 -36t36 -15t36 15t15 36t-15 36t-36 15t-36 -15t-15 -36zM437 809q0 -21 15 -36t36 -15t36 15t15 36t-15 36t-36 15t-36 -15t-15 -36zM619 360q0 -31 -1 -68t-7 -74t-19.5 -71t-37.5 -60t-61.5 -42t-92.5 -16q-56 0 -94 13.5t-63 37t-38.5 55t-19.5 66
t-7 71t-1 70.5q0 56 1 108t3 97t4 80.5t4 57.5q-11 -2 -21.5 -3.5t-21.5 -1.5q-12 0 -26 1.5t-26 3.5q2 -45 4 -110t2 -149q0 -38 -2.5 -74.5t-2.5 -83.5q0 -147 68 -215t218 -68q68 0 120.5 19t88.5 56t55.5 90t20.5 120q1 55 3 113.5l4 114t5 104t6 83.5q-17 -5 -30 -5
q-10 0 -20 1.5t-21 3.5q4 -29 5 -106t1 -219z" />
    <glyph glyph-name="Yacute" unicode="&#xdd;" horiz-adv-x="611" 
d="M384 870l-147 -149h42l147 94q12 8 24 18.5t12 28.5q0 16 -11.5 24t-21.5 8q-21 0 -45 -24zM265 279q0 -81 -1 -155t-7 -126q23 2 49 2t49 -2q-2 21 -3.5 55.5t-2.5 75t-1.5 82.5t-0.5 79q16 31 38 69.5l51 86.5l67 107l86 132q-25 -5 -39 -5t-39 5l-43 -88.5l-48 -90.5
l-50 -88l-48 -79l-98.5 175l-91.5 171q-14 -2 -27.5 -3.5t-27.5 -1.5t-27.5 1.5t-27.5 3.5l29 -47.5l42.5 -71l49.5 -83l49.5 -83l43 -72z" />
    <glyph glyph-name="Thorn" unicode="&#xde;" 
d="M98 426v-172q0 -66 -2.5 -130t-5.5 -126q23 2 49 2t49 -2q-2 6 -3.5 21.5t-2.5 35t-1.5 41.5t-0.5 43v56q21 -2 43.5 -3t49.5 -1q44 0 88 9t79 30.5t57 58t22 91.5q0 91 -57 132.5t-159 41.5h-123q0 33 2.5 65.5t5.5 65.5q-13 -2 -25 -3.5t-24 -1.5t-24 1.5t-25 3.5
q3 -66 5.5 -129.5t2.5 -129.5zM180 232v285h89q44 0 74.5 -12t49 -31.5t26.5 -44t8 -50.5q0 -39 -14.5 -67.5t-38 -47t-54 -27.5t-62.5 -9q-23 0 -44.5 1t-33.5 3z" />
    <glyph glyph-name="germandbls" unicode="&#xdf;" 
d="M87 406v-123q0 -34 -0.5 -74t-1.5 -79t-2.5 -74t-3.5 -58q23 2 45 2t45 -2q-2 23 -3.5 58t-2.5 74t-1.5 79t-0.5 74v235q0 100 26 152.5t95 52.5q48 0 73.5 -26.5t25.5 -66.5t-21 -71.5t-46 -59.5t-46 -54t-21 -55q0 -28 15.5 -49.5t39.5 -40t51 -36t51 -37t39.5 -43.5
t15.5 -56q0 -24 -9 -44t-24 -33.5t-34.5 -21t-40.5 -7.5q-31 0 -58.5 13.5t-38.5 31.5h-5q-2 -14 -6.5 -31t-11.5 -28q17 -8 42.5 -14t57.5 -6q39 0 74.5 15.5t62.5 42.5t43 60t16 66q0 35 -15.5 61t-39.5 46.5t-51 37t-51 33t-39.5 34.5t-15.5 41t18.5 45l40.5 47.5
t40.5 55.5t18.5 69q0 26 -14 46.5t-36 35.5t-47.5 23t-48.5 8q-33 0 -69 -12.5t-65.5 -39.5t-49 -70.5t-19.5 -105.5q0 -11 1.5 -42t1.5 -79z" />
    <glyph glyph-name="agrave" unicode="&#xe0;" horiz-adv-x="500" 
d="M130 653l147 -94h42l-147 149q-24 24 -45 24q-10 0 -21.5 -8t-11.5 -24q0 -18 12 -28.5t24 -18.5zM333 247l-4 -150q-17 -28 -48.5 -49t-69.5 -21q-33 0 -60 24t-27 71q0 28 10.5 46t28 30t40 19t45.5 11.5l45.5 8.5t39.5 10zM86 425v-52h11q17 32 51.5 50t74.5 18
q30 0 51 -10.5t34 -27.5t19 -40t6 -48q0 -15 -3 -24.5t-17.5 -16.5t-45 -13.5t-84.5 -15.5q-66 -11 -103.5 -44t-37.5 -93q0 -29 11.5 -51.5t30 -38.5t42.5 -23t49 -7q51 0 86 17t71 53q3 -26 20 -42.5t49 -16.5q20 0 36.5 3t27.5 8v22q-5 -3 -10.5 -3.5t-10.5 -0.5
q-15 0 -22.5 7t-11.5 17.5t-4.5 24t-0.5 25.5q0 63 2 119.5t2 113.5q0 33 -12 60.5t-33 47t-51 30t-66 10.5q-40 0 -78 -12t-83 -46z" />
    <glyph glyph-name="aacute" unicode="&#xe1;" horiz-adv-x="500" 
d="M329 708l-147 -149h42l147 94q12 8 24 18.5t12 28.5q0 16 -11.5 24t-21.5 8q-21 0 -45 -24zM333 247l-4 -150q-17 -28 -48.5 -49t-69.5 -21q-33 0 -60 24t-27 71q0 28 10.5 46t28 30t40 19t45.5 11.5l45.5 8.5t39.5 10zM86 425v-52h11q17 32 51.5 50t74.5 18
q30 0 51 -10.5t34 -27.5t19 -40t6 -48q0 -15 -3 -24.5t-17.5 -16.5t-45 -13.5t-84.5 -15.5q-66 -11 -103.5 -44t-37.5 -93q0 -29 11.5 -51.5t30 -38.5t42.5 -23t49 -7q51 0 86 17t71 53q3 -26 20 -42.5t49 -16.5q20 0 36.5 3t27.5 8v22q-5 -3 -10.5 -3.5t-10.5 -0.5
q-15 0 -22.5 7t-11.5 17.5t-4.5 24t-0.5 25.5q0 63 2 119.5t2 113.5q0 33 -12 60.5t-33 47t-51 30t-66 10.5q-40 0 -78 -12t-83 -46z" />
    <glyph glyph-name="acircumflex" unicode="&#xe2;" horiz-adv-x="500" 
d="M250 664l120 -105h37l-123 167h-67l-123 -167h37zM333 247l-4 -150q-17 -28 -48.5 -49t-69.5 -21q-33 0 -60 24t-27 71q0 28 10.5 46t28 30t40 19t45.5 11.5l45.5 8.5t39.5 10zM86 425v-52h11q17 32 51.5 50t74.5 18q30 0 51 -10.5t34 -27.5t19 -40t6 -48q0 -15 -3 -24.5
t-17.5 -16.5t-45 -13.5t-84.5 -15.5q-66 -11 -103.5 -44t-37.5 -93q0 -29 11.5 -51.5t30 -38.5t42.5 -23t49 -7q51 0 86 17t71 53q3 -26 20 -42.5t49 -16.5q20 0 36.5 3t27.5 8v22q-5 -3 -10.5 -3.5t-10.5 -0.5q-15 0 -22.5 7t-11.5 17.5t-4.5 24t-0.5 25.5q0 63 2 119.5
t2 113.5q0 33 -12 60.5t-33 47t-51 30t-66 10.5q-40 0 -78 -12t-83 -46z" />
    <glyph glyph-name="atilde" unicode="&#xe3;" horiz-adv-x="500" 
d="M86 584h30q9 26 19.5 36t33.5 10q12 0 25.5 -4.5t39.5 -18.5q23 -13 40.5 -18t31.5 -5q30 0 50 12t32.5 29.5t18.5 35.5t8 30h-29q-6 -20 -20 -35t-37 -15q-13 0 -25.5 4.5t-40.5 18.5q-28 13 -42 18t-31 5q-24 0 -42 -9.5t-31 -24.5t-20.5 -33t-10.5 -36zM333 247
l-4 -150q-17 -28 -48.5 -49t-69.5 -21q-33 0 -60 24t-27 71q0 28 10.5 46t28 30t40 19t45.5 11.5l45.5 8.5t39.5 10zM86 425v-52h11q17 32 51.5 50t74.5 18q30 0 51 -10.5t34 -27.5t19 -40t6 -48q0 -15 -3 -24.5t-17.5 -16.5t-45 -13.5t-84.5 -15.5q-66 -11 -103.5 -44
t-37.5 -93q0 -29 11.5 -51.5t30 -38.5t42.5 -23t49 -7q51 0 86 17t71 53q3 -26 20 -42.5t49 -16.5q20 0 36.5 3t27.5 8v22q-5 -3 -10.5 -3.5t-10.5 -0.5q-15 0 -22.5 7t-11.5 17.5t-4.5 24t-0.5 25.5q0 63 2 119.5t2 113.5q0 33 -12 60.5t-33 47t-51 30t-66 10.5
q-40 0 -78 -12t-83 -46z" />
    <glyph glyph-name="adieresis" unicode="&#xe4;" horiz-adv-x="500" 
d="M101 637q0 -21 15 -36t36 -15t36 15t15 36t-15 36t-36 15t-36 -15t-15 -36zM298 637q0 -21 15 -36t36 -15t36 15t15 36t-15 36t-36 15t-36 -15t-15 -36zM333 247l-4 -150q-17 -28 -48.5 -49t-69.5 -21q-33 0 -60 24t-27 71q0 28 10.5 46t28 30t40 19t45.5 11.5l45.5 8.5
t39.5 10zM86 425v-52h11q17 32 51.5 50t74.5 18q30 0 51 -10.5t34 -27.5t19 -40t6 -48q0 -15 -3 -24.5t-17.5 -16.5t-45 -13.5t-84.5 -15.5q-66 -11 -103.5 -44t-37.5 -93q0 -29 11.5 -51.5t30 -38.5t42.5 -23t49 -7q51 0 86 17t71 53q3 -26 20 -42.5t49 -16.5q20 0 36.5 3
t27.5 8v22q-5 -3 -10.5 -3.5t-10.5 -0.5q-15 0 -22.5 7t-11.5 17.5t-4.5 24t-0.5 25.5q0 63 2 119.5t2 113.5q0 33 -12 60.5t-33 47t-51 30t-66 10.5q-40 0 -78 -12t-83 -46z" />
    <glyph glyph-name="aring" unicode="&#xe5;" horiz-adv-x="500" 
d="M190 645q0 25 17.5 42.5t43.5 17.5q25 0 42.5 -17.5t17.5 -42.5t-17.5 -42.5t-43.5 -17.5q-25 0 -42.5 17.5t-17.5 42.5zM148 645q0 -21 8 -39.5t22 -32.5t32.5 -22t39.5 -8t40 8t33 22t22 32.5t8 39.5t-8 39.5t-22 32.5t-32.5 22t-39.5 8t-40 -8t-33 -22t-22 -32.5
t-8 -39.5zM333 247l-4 -150q-17 -28 -48.5 -49t-69.5 -21q-33 0 -60 24t-27 71q0 28 10.5 46t28 30t40 19t45.5 11.5l45.5 8.5t39.5 10zM86 425v-52h11q17 32 51.5 50t74.5 18q30 0 51 -10.5t34 -27.5t19 -40t6 -48q0 -15 -3 -24.5t-17.5 -16.5t-45 -13.5t-84.5 -15.5
q-66 -11 -103.5 -44t-37.5 -93q0 -29 11.5 -51.5t30 -38.5t42.5 -23t49 -7q51 0 86 17t71 53q3 -26 20 -42.5t49 -16.5q20 0 36.5 3t27.5 8v22q-5 -3 -10.5 -3.5t-10.5 -0.5q-15 0 -22.5 7t-11.5 17.5t-4.5 24t-0.5 25.5q0 63 2 119.5t2 113.5q0 33 -12 60.5t-33 47t-51 30
t-66 10.5q-40 0 -78 -12t-83 -46z" />
    <glyph glyph-name="ae" unicode="&#xe6;" horiz-adv-x="778" 
d="M544 451q39 0 63 -17t37.5 -43t18 -56t4.5 -57l-66 -2t-67 -1q-32 0 -65.5 1l-64.5 2q2 27 10.5 57.5t25 56t42 42.5t62.5 17zM79 425v-52h11q17 32 51.5 50t74.5 18q30 0 51 -10.5t34 -27.5t19 -40t6 -48q0 -15 -3 -24.5t-17.5 -16.5t-45 -13.5t-84.5 -15.5
q-66 -11 -103.5 -44t-37.5 -93q0 -29 11.5 -51.5t30 -38.5t42.5 -23t49 -7q42 0 72.5 9t52.5 25.5t36 38t22 43.5q25 -58 79 -87t126 -29q48 0 92.5 17t74.5 41l6 49l-5 3q-13 -15 -30.5 -28t-37.5 -22.5t-41 -15t-41 -5.5q-42 0 -74 14.5t-54 39t-33.5 58.5t-11.5 73v13
q0 10 1 15l65.5 2t65.5 1q54 0 107 -1l107 -2q1 10 1.5 19.5t0.5 19.5q0 42 -12.5 79t-38.5 64.5t-64.5 44t-91.5 16.5q-48 0 -87 -20t-65 -55q-17 23 -36.5 37.5t-39 23t-38.5 11.5t-36 3q-40 0 -78 -12t-83 -46zM117 122q0 28 10.5 46t28 30t40 19t45.5 11.5l45.5 8.5
t39.5 10q-1 -29 -0.5 -57t-1.5 -57q-2 -27 -12 -46.5t-26 -33t-35.5 -20t-39.5 -6.5q-43 0 -68.5 26t-25.5 69z" />
    <glyph glyph-name="ccedilla" unicode="&#xe7;" horiz-adv-x="500" 
d="M194 -172l-14 -32q14 -5 36 -11t53 -6q24 0 45.5 5.5t38 16t26 26.5t9.5 37q0 32 -22 51.5t-61 19.5q-10 0 -16.5 -1.5t-12.5 -3.5l21 59q45 2 86 18t69 39q1 25 6 49l-5 3q-13 -15 -30.5 -28t-37.5 -22.5t-41 -15t-41 -5.5q-85 0 -129 52.5t-44 155.5q0 46 9.5 85.5
t30 68.5t53 45.5t77.5 16.5q24 0 44 -7.5t36.5 -19t28.5 -25t19 -26.5h8q4 18 9.5 34.5t12.5 31.5q-19 17 -62.5 30.5t-98.5 13.5q-48 0 -94 -14.5t-81.5 -45t-57.5 -77.5t-22 -112q0 -63 19 -108t49.5 -75t70 -44t79.5 -17l-35 -92l7 -7q10 7 43 7q21 0 36 -9t15 -31
q0 -20 -17.5 -31t-42.5 -11q-23 0 -42 3.5t-30 8.5z" />
    <glyph glyph-name="egrave" unicode="&#xe8;" horiz-adv-x="500" 
d="M146 653l147 -94h42l-147 149q-24 24 -45 24q-10 0 -21.5 -8t-11.5 -24q0 -18 12 -28.5t24 -18.5zM266 451q39 0 63 -17t37.5 -43t18 -56t4.5 -57l-66 -2t-67 -1q-32 0 -65.5 1l-64.5 2q2 27 10.5 57.5t25 56t42 42.5t62.5 17zM35 220q0 -50 17.5 -93t50 -74.5t77 -48
t98.5 -16.5q48 0 92.5 17t74.5 41l6 49l-5 3q-13 -15 -30.5 -28t-37.5 -22.5t-41 -15t-41 -5.5q-42 0 -74 14.5t-54 39t-33.5 58.5t-11.5 73v13q0 10 1 15l65.5 2t65.5 1q54 0 107 -1l107 -2q1 10 1.5 19.5t0.5 19.5q0 42 -12.5 79t-38.5 64.5t-64.5 44t-91.5 16.5
q-112 0 -170.5 -70t-58.5 -193z" />
    <glyph glyph-name="eacute" unicode="&#xe9;" horiz-adv-x="500" 
d="M345 708l-147 -149h42l147 94q12 8 24 18.5t12 28.5q0 16 -11.5 24t-21.5 8q-21 0 -45 -24zM266 451q39 0 63 -17t37.5 -43t18 -56t4.5 -57l-66 -2t-67 -1q-32 0 -65.5 1l-64.5 2q2 27 10.5 57.5t25 56t42 42.5t62.5 17zM35 220q0 -50 17.5 -93t50 -74.5t77 -48
t98.5 -16.5q48 0 92.5 17t74.5 41l6 49l-5 3q-13 -15 -30.5 -28t-37.5 -22.5t-41 -15t-41 -5.5q-42 0 -74 14.5t-54 39t-33.5 58.5t-11.5 73v13q0 10 1 15l65.5 2t65.5 1q54 0 107 -1l107 -2q1 10 1.5 19.5t0.5 19.5q0 42 -12.5 79t-38.5 64.5t-64.5 44t-91.5 16.5
q-112 0 -170.5 -70t-58.5 -193z" />
    <glyph glyph-name="ecircumflex" unicode="&#xea;" horiz-adv-x="500" 
d="M266 664l120 -105h37l-123 167h-67l-123 -167h37zM266 451q39 0 63 -17t37.5 -43t18 -56t4.5 -57l-66 -2t-67 -1q-32 0 -65.5 1l-64.5 2q2 27 10.5 57.5t25 56t42 42.5t62.5 17zM35 220q0 -50 17.5 -93t50 -74.5t77 -48t98.5 -16.5q48 0 92.5 17t74.5 41l6 49l-5 3
q-13 -15 -30.5 -28t-37.5 -22.5t-41 -15t-41 -5.5q-42 0 -74 14.5t-54 39t-33.5 58.5t-11.5 73v13q0 10 1 15l65.5 2t65.5 1q54 0 107 -1l107 -2q1 10 1.5 19.5t0.5 19.5q0 42 -12.5 79t-38.5 64.5t-64.5 44t-91.5 16.5q-112 0 -170.5 -70t-58.5 -193z" />
    <glyph glyph-name="edieresis" unicode="&#xeb;" horiz-adv-x="500" 
d="M117 637q0 -21 15 -36t36 -15t36 15t15 36t-15 36t-36 15t-36 -15t-15 -36zM314 637q0 -21 15 -36t36 -15t36 15t15 36t-15 36t-36 15t-36 -15t-15 -36zM266 451q39 0 63 -17t37.5 -43t18 -56t4.5 -57l-66 -2t-67 -1q-32 0 -65.5 1l-64.5 2q2 27 10.5 57.5t25 56t42 42.5
t62.5 17zM35 220q0 -50 17.5 -93t50 -74.5t77 -48t98.5 -16.5q48 0 92.5 17t74.5 41l6 49l-5 3q-13 -15 -30.5 -28t-37.5 -22.5t-41 -15t-41 -5.5q-42 0 -74 14.5t-54 39t-33.5 58.5t-11.5 73v13q0 10 1 15l65.5 2t65.5 1q54 0 107 -1l107 -2q1 10 1.5 19.5t0.5 19.5
q0 42 -12.5 79t-38.5 64.5t-64.5 44t-91.5 16.5q-112 0 -170.5 -70t-58.5 -193z" />
    <glyph glyph-name="igrave" unicode="&#xec;" horiz-adv-x="278" 
d="M19 653l147 -94h42l-147 149q-24 24 -45 24q-10 0 -20 -8t-10 -24q0 -18 10.5 -28.5t22.5 -18.5zM102 286v-104q0 -45 -1.5 -94.5t-6.5 -89.5q23 2 45 2t45 -2q-5 40 -6.5 89.5t-1.5 94.5v104q0 45 1.5 94.5t6.5 92.5q-28 -5 -45 -5t-45 5q5 -43 6.5 -92.5t1.5 -94.5z
" />
    <glyph glyph-name="iacute" unicode="&#xed;" horiz-adv-x="278" 
d="M218 708l-147 -149h42l147 94q12 8 24 18.5t12 28.5q0 16 -11.5 24t-21.5 8q-21 0 -45 -24zM102 286v-104q0 -45 -1.5 -94.5t-6.5 -89.5q23 2 45 2t45 -2q-5 40 -6.5 89.5t-1.5 94.5v104q0 45 1.5 94.5t6.5 92.5q-28 -5 -45 -5t-45 5q5 -43 6.5 -92.5t1.5 -94.5z" />
    <glyph glyph-name="icircumflex" unicode="&#xee;" horiz-adv-x="278" 
d="M139 664l120 -105h37l-123 167h-67l-120 -167h34zM102 286v-104q0 -45 -1.5 -94.5t-6.5 -89.5q23 2 45 2t45 -2q-5 40 -6.5 89.5t-1.5 94.5v104q0 45 1.5 94.5t6.5 92.5q-28 -5 -45 -5t-45 5q5 -43 6.5 -92.5t1.5 -94.5z" />
    <glyph glyph-name="idieresis" unicode="&#xef;" horiz-adv-x="278" 
d="M-7 637q0 -21 13.5 -36t34.5 -15t36 15t15 36t-15 36t-36 15t-34.5 -15t-13.5 -36zM187 637q0 -21 15 -36t36 -15t36 15t15 36t-15 36t-36 15t-36 -15t-15 -36zM102 286v-104q0 -45 -1.5 -94.5t-6.5 -89.5q23 2 45 2t45 -2q-5 40 -6.5 89.5t-1.5 94.5v104q0 45 1.5 94.5
t6.5 92.5q-28 -5 -45 -5t-45 5q5 -43 6.5 -92.5t1.5 -94.5z" />
    <glyph glyph-name="eth" unicode="&#xf0;" 
d="M35 234q0 -68 21.5 -115.5t56.5 -77t78.5 -41.5t86.5 -12q44 0 87 12t78 41.5t56.5 77t21.5 115.5q0 51 -14 99.5t-43 97t-75 99t-110 104.5q29 9 58 17t61 16q-14 17 -21 35q-28 -11 -59.5 -22t-66.5 -22l-60 47l-68 50l-70 -18l64 -51t58 -51q-32 -10 -63.5 -18.5
l-61.5 -16.5q12 -18 21 -36l66 23l64 22q35 -32 66 -64.5l62 -66.5l-2 -2q-12 5 -24 6t-25 1q-43 0 -86.5 -13.5t-78.5 -43t-56.5 -77t-21.5 -115.5zM433 234q0 -42 -7.5 -81t-25.5 -69.5t-48 -48.5t-74 -18t-74 18t-48 48.5t-25.5 69.5t-7.5 81t7.5 81t25.5 69.5t48 48.5
t74 18t74 -18t48 -48.5t25.5 -69.5t7.5 -81z" />
    <glyph glyph-name="ntilde" unicode="&#xf1;" 
d="M114 584h30q9 26 19.5 36t33.5 10q12 0 25.5 -4.5t39.5 -18.5q23 -13 40.5 -18t31.5 -5q30 0 50 12t32.5 29.5t18.5 35.5t8 30h-29q-6 -20 -20 -35t-37 -15q-13 0 -25.5 4.5t-40.5 18.5q-28 13 -42 18t-31 5q-24 0 -42 -9.5t-31 -24.5t-20.5 -33t-10.5 -36zM402 279v-61
q0 -58 -2.5 -113t-4.5 -107q20 2 41 2q22 0 42 -2q-1 14 -1.5 29.5t-0.5 31.5v65q0 51 2 96.5t2 88.5q0 52 -14.5 85.5t-37.5 53t-51.5 27.5t-56.5 8q-54 0 -93 -23.5t-67 -66.5h-2q0 40 3 80l-22.5 -3.5t-17.5 -1.5q-17 0 -45 5q5 -43 6.5 -92.5t1.5 -94.5v-104
q0 -45 -1.5 -94.5t-6.5 -89.5q23 2 45 2t45 -2q-5 40 -6.5 89.5t-1.5 94.5v85q0 78 32.5 121t102.5 43q51 0 80 -38.5t29 -113.5z" />
    <glyph glyph-name="ograve" unicode="&#xf2;" 
d="M158 653l147 -94h42l-147 149q-24 24 -45 24q-10 0 -21.5 -8t-11.5 -24q0 -18 12 -28.5t24 -18.5zM123 234q0 42 7.5 81t25.5 69.5t48 48.5t74 18t74 -18t48 -48.5t25.5 -69.5t7.5 -81t-7.5 -81t-25.5 -69.5t-48 -48.5t-74 -18t-74 18t-48 48.5t-25.5 69.5t-7.5 81z
M35 234q0 -68 21.5 -115.5t56.5 -77t78.5 -41.5t86.5 -12q44 0 87 12t78 41.5t56.5 77t21.5 115.5t-21.5 115.5t-56.5 77t-78 43t-87 13.5q-43 0 -86.5 -13.5t-78.5 -43t-56.5 -77t-21.5 -115.5z" />
    <glyph glyph-name="oacute" unicode="&#xf3;" 
d="M357 708l-147 -149h42l147 94q12 8 24 18.5t12 28.5q0 16 -11.5 24t-21.5 8q-21 0 -45 -24zM123 234q0 42 7.5 81t25.5 69.5t48 48.5t74 18t74 -18t48 -48.5t25.5 -69.5t7.5 -81t-7.5 -81t-25.5 -69.5t-48 -48.5t-74 -18t-74 18t-48 48.5t-25.5 69.5t-7.5 81zM35 234
q0 -68 21.5 -115.5t56.5 -77t78.5 -41.5t86.5 -12q44 0 87 12t78 41.5t56.5 77t21.5 115.5t-21.5 115.5t-56.5 77t-78 43t-87 13.5q-43 0 -86.5 -13.5t-78.5 -43t-56.5 -77t-21.5 -115.5z" />
    <glyph glyph-name="ocircumflex" unicode="&#xf4;" 
d="M278 664l120 -105h37l-123 167h-67l-123 -167h37zM123 234q0 42 7.5 81t25.5 69.5t48 48.5t74 18t74 -18t48 -48.5t25.5 -69.5t7.5 -81t-7.5 -81t-25.5 -69.5t-48 -48.5t-74 -18t-74 18t-48 48.5t-25.5 69.5t-7.5 81zM35 234q0 -68 21.5 -115.5t56.5 -77t78.5 -41.5
t86.5 -12q44 0 87 12t78 41.5t56.5 77t21.5 115.5t-21.5 115.5t-56.5 77t-78 43t-87 13.5q-43 0 -86.5 -13.5t-78.5 -43t-56.5 -77t-21.5 -115.5z" />
    <glyph glyph-name="otilde" unicode="&#xf5;" 
d="M114 584h30q9 26 19.5 36t33.5 10q12 0 25.5 -4.5t39.5 -18.5q23 -13 40.5 -18t31.5 -5q30 0 50 12t32.5 29.5t18.5 35.5t8 30h-29q-6 -20 -20 -35t-37 -15q-13 0 -25.5 4.5t-40.5 18.5q-28 13 -42 18t-31 5q-24 0 -42 -9.5t-31 -24.5t-20.5 -33t-10.5 -36zM123 234
q0 42 7.5 81t25.5 69.5t48 48.5t74 18t74 -18t48 -48.5t25.5 -69.5t7.5 -81t-7.5 -81t-25.5 -69.5t-48 -48.5t-74 -18t-74 18t-48 48.5t-25.5 69.5t-7.5 81zM35 234q0 -68 21.5 -115.5t56.5 -77t78.5 -41.5t86.5 -12q44 0 87 12t78 41.5t56.5 77t21.5 115.5t-21.5 115.5
t-56.5 77t-78 43t-87 13.5q-43 0 -86.5 -13.5t-78.5 -43t-56.5 -77t-21.5 -115.5z" />
    <glyph glyph-name="odieresis" unicode="&#xf6;" 
d="M129 637q0 -21 15 -36t36 -15t36 15t15 36t-15 36t-36 15t-36 -15t-15 -36zM326 637q0 -21 15 -36t36 -15t36 15t15 36t-15 36t-36 15t-36 -15t-15 -36zM123 234q0 42 7.5 81t25.5 69.5t48 48.5t74 18t74 -18t48 -48.5t25.5 -69.5t7.5 -81t-7.5 -81t-25.5 -69.5
t-48 -48.5t-74 -18t-74 18t-48 48.5t-25.5 69.5t-7.5 81zM35 234q0 -68 21.5 -115.5t56.5 -77t78.5 -41.5t86.5 -12q44 0 87 12t78 41.5t56.5 77t21.5 115.5t-21.5 115.5t-56.5 77t-78 43t-87 13.5q-43 0 -86.5 -13.5t-78.5 -43t-56.5 -77t-21.5 -115.5z" />
    <glyph glyph-name="divide" unicode="&#xf7;" horiz-adv-x="606" 
d="M246 57q0 -23 17 -40t40 -17t40 17t17 40t-17 40t-40 17t-40 -17t-17 -40zM246 449q0 -23 17 -40t40 -17t40 17t17 40t-17 40t-40 17t-40 -17t-17 -40zM50 279v-52h506v52h-506z" />
    <glyph glyph-name="oslash" unicode="&#xf8;" 
d="M395 391l-252 -281q-11 27 -15.5 58.5t-4.5 65.5q0 42 7.5 81t25.5 69.5t48 48.5t74 18q42 0 71 -16.5t46 -43.5zM35 234q0 -60 16.5 -102.5t43.5 -73.5l-24 -27.5t-22.5 -24l-19 -18.5t-12.5 -11q14 -6 25 -21q11 14 31.5 35t43.5 47q35 -28 77 -39t84 -11q44 0 87 12
t78 41.5t56.5 77t21.5 115.5q0 64 -18 108t-50 76l44 48t31 29q-15 7 -25 22q-6 -11 -26.5 -34l-43.5 -48q-35 26 -75 37t-80 11q-43 0 -86.5 -13.5t-78.5 -43t-56.5 -77t-21.5 -115.5zM156 83l252 285q14 -28 19.5 -62.5t5.5 -71.5q0 -42 -7.5 -81t-25.5 -69.5t-48 -48.5
t-74 -18q-45 0 -74.5 18t-47.5 48z" />
    <glyph glyph-name="ugrave" unicode="&#xf9;" 
d="M158 653l147 -94h42l-147 149q-24 24 -45 24q-10 0 -21.5 -8t-11.5 -24q0 -18 12 -28.5t24 -18.5zM76 149q0 -78 44.5 -119.5t122.5 -41.5q48 0 89 22.5t67 70.5h2v-43q0 -11 -0.5 -21t-1.5 -19q20 2 39 2t39 -2q-2 40 -3 83t-1 88q0 81 1 153.5t6 150.5q-10 -2 -20 -3.5
t-21 -1.5t-21 1.5t-21 3.5q1 -18 1.5 -38t0.5 -42v-84q0 -59 -0.5 -93t-3 -54t-6.5 -32t-11 -29q-13 -27 -41 -45.5t-70 -18.5q-29 0 -50.5 10.5t-35.5 26.5q-13 14 -22 41.5t-9 79.5q0 75 2.5 146.5t7.5 131.5q-25 -5 -41 -5q-17 0 -42 5q1 -42 1.5 -83t0.5 -76
q0 -37 -1.5 -74.5t-1.5 -90.5z" />
    <glyph glyph-name="uacute" unicode="&#xfa;" 
d="M357 708l-147 -149h42l147 94q12 8 24 18.5t12 28.5q0 16 -11.5 24t-21.5 8q-21 0 -45 -24zM76 149q0 -78 44.5 -119.5t122.5 -41.5q48 0 89 22.5t67 70.5h2v-43q0 -11 -0.5 -21t-1.5 -19q20 2 39 2t39 -2q-2 40 -3 83t-1 88q0 81 1 153.5t6 150.5q-10 -2 -20 -3.5
t-21 -1.5t-21 1.5t-21 3.5q1 -18 1.5 -38t0.5 -42v-84q0 -59 -0.5 -93t-3 -54t-6.5 -32t-11 -29q-13 -27 -41 -45.5t-70 -18.5q-29 0 -50.5 10.5t-35.5 26.5q-13 14 -22 41.5t-9 79.5q0 75 2.5 146.5t7.5 131.5q-25 -5 -41 -5q-17 0 -42 5q1 -42 1.5 -83t0.5 -76
q0 -37 -1.5 -74.5t-1.5 -90.5z" />
    <glyph glyph-name="ucircumflex" unicode="&#xfb;" 
d="M278 664l120 -105h37l-123 167h-67l-123 -167h37zM76 149q0 -78 44.5 -119.5t122.5 -41.5q48 0 89 22.5t67 70.5h2v-43q0 -11 -0.5 -21t-1.5 -19q20 2 39 2t39 -2q-2 40 -3 83t-1 88q0 81 1 153.5t6 150.5q-10 -2 -20 -3.5t-21 -1.5t-21 1.5t-21 3.5q1 -18 1.5 -38
t0.5 -42v-84q0 -59 -0.5 -93t-3 -54t-6.5 -32t-11 -29q-13 -27 -41 -45.5t-70 -18.5q-29 0 -50.5 10.5t-35.5 26.5q-13 14 -22 41.5t-9 79.5q0 75 2.5 146.5t7.5 131.5q-25 -5 -41 -5q-17 0 -42 5q1 -42 1.5 -83t0.5 -76q0 -37 -1.5 -74.5t-1.5 -90.5z" />
    <glyph glyph-name="udieresis" unicode="&#xfc;" 
d="M129 637q0 -21 15 -36t36 -15t36 15t15 36t-15 36t-36 15t-36 -15t-15 -36zM326 637q0 -21 15 -36t36 -15t36 15t15 36t-15 36t-36 15t-36 -15t-15 -36zM76 149q0 -78 44.5 -119.5t122.5 -41.5q48 0 89 22.5t67 70.5h2v-43q0 -11 -0.5 -21t-1.5 -19q20 2 39 2t39 -2
q-2 40 -3 83t-1 88q0 81 1 153.5t6 150.5q-10 -2 -20 -3.5t-21 -1.5t-21 1.5t-21 3.5q1 -18 1.5 -38t0.5 -42v-84q0 -59 -0.5 -93t-3 -54t-6.5 -32t-11 -29q-13 -27 -41 -45.5t-70 -18.5q-29 0 -50.5 10.5t-35.5 26.5q-13 14 -22 41.5t-9 79.5q0 75 2.5 146.5t7.5 131.5
q-25 -5 -41 -5q-17 0 -42 5q1 -42 1.5 -83t0.5 -76q0 -37 -1.5 -74.5t-1.5 -90.5z" />
    <glyph glyph-name="yacute" unicode="&#xfd;" horiz-adv-x="500" 
d="M329 708l-147 -149h42l147 94q12 8 24 18.5t12 28.5q0 16 -11.5 24t-21.5 8q-21 0 -45 -24zM222 -3q-55 -131 -134 -262q20 5 34 5t34 -5q8 25 24.5 67.5l38.5 95l48 111l52.5 118l52 116l47 103l37 80t22.5 47.5q-20 -5 -33 -5t-33 5q-30 -96 -68.5 -196t-80.5 -188
l-80 194t-69 190q-13 -2 -24 -3.5t-22 -1.5t-22 1.5t-24 3.5l21 -49l32.5 -76.5l39.5 -93l41 -97l37.5 -90.5z" />
    <glyph glyph-name="thorn" unicode="&#xfe;" 
d="M426 238q0 -45 -8.5 -84.5t-26 -69t-44 -46t-62.5 -16.5q-146 0 -146 208q0 43 8 81.5t26 67t46.5 45.5t68.5 17q24 0 49 -9t44.5 -32.5t32 -62.5t12.5 -99zM65 464v-444q0 -32 -0.5 -71.5t-1.5 -78.5t-2.5 -74.5t-3.5 -60.5q28 5 45 5t45 -5q-2 25 -3.5 60.5t-2.5 74.5
t-1.5 78.5t-0.5 71.5v63h2q47 -95 157 -95q39 0 78 14.5t69.5 45.5t49.5 78t19 111t-17.5 110.5t-46 76.5t-65.5 44.5t-75 14.5q-37 0 -66 -11t-49.5 -27.5t-33.5 -35t-20 -34.5h-2v89q0 34 0.5 74t1.5 79t2.5 74.5t3.5 60.5q-28 -5 -45 -5t-45 5q2 -25 3.5 -60.5t2.5 -74.5
t1.5 -79t0.5 -74z" />
    <glyph glyph-name="ydieresis" unicode="&#xff;" horiz-adv-x="500" 
d="M101 637q0 -21 15 -36t36 -15t36 15t15 36t-15 36t-36 15t-36 -15t-15 -36zM298 637q0 -21 15 -36t36 -15t36 15t15 36t-15 36t-36 15t-36 -15t-15 -36zM222 -3q-55 -131 -134 -262q20 5 34 5t34 -5q8 25 24.5 67.5l38.5 95l48 111l52.5 118l52 116l47 103l37 80
t22.5 47.5q-20 -5 -33 -5t-33 5q-30 -96 -68.5 -196t-80.5 -188l-80 194t-69 190q-13 -2 -24 -3.5t-22 -1.5t-22 1.5t-24 3.5l21 -49l32.5 -76.5l39.5 -93l41 -97l37.5 -90.5z" />
    <glyph glyph-name="dotlessi" unicode="&#x131;" horiz-adv-x="278" 
d="M102 286v-104q0 -45 -1.5 -94.5t-6.5 -89.5q23 2 45 2t45 -2q-5 40 -6.5 89.5t-1.5 94.5v104q0 45 1.5 94.5t6.5 92.5q-28 -5 -45 -5t-45 5q5 -43 6.5 -92.5t1.5 -94.5z" />
    <glyph glyph-name="Lslash" unicode="&#x141;" horiz-adv-x="500" 
d="M98 426v-89l-50 -28l-50 -29q12 -20 19 -37q8 8 30 22.5t51 31.5v-43q0 -66 -2.5 -130t-5.5 -126q48 2 92.5 2h92.5h92t92 -2q-5 16 -5 27q0 12 5 30q-75 -10 -140 -11.5t-136 -1.5q-1 43 -2 93.5t-1 122.5v90l70 40l53 29q-5 8 -10 17t-9 19l-54.5 -35.5t-49.5 -30.5v39
q0 66 2.5 129.5t5.5 129.5q-13 -2 -25 -3.5t-24 -1.5t-24 1.5t-25 3.5q3 -66 5.5 -129.5t2.5 -129.5z" />
    <glyph glyph-name="lslash" unicode="&#x142;" horiz-adv-x="278" 
d="M102 327v-44q0 -34 -0.5 -74t-1.5 -79t-2.5 -74t-3.5 -58q23 2 45 2t45 -2q-2 23 -3.5 58t-2.5 74t-1.5 79t-0.5 74v93q33 21 55.5 33.5t34.5 20.5q-7 6 -12.5 14.5t-5.5 16.5q-15 -11 -32.5 -22.5l-39.5 -25.5v51q0 34 0.5 74t1.5 79t2.5 74.5t3.5 60.5q-28 -5 -45 -5
t-45 5q2 -25 3.5 -60.5t2.5 -74.5t1.5 -79t0.5 -74v-99l-46.5 -29l-43.5 -26q7 -7 11 -14t8 -15l28 18z" />
    <glyph glyph-name="OE" unicode="&#x152;" horiz-adv-x="1000" 
d="M140 340q0 83 21 143.5t58 100t86.5 58.5t106.5 19q53 0 98.5 -17t79 -55.5t52.5 -99.5t19 -149q0 -72 -18 -131t-52 -101.5t-82 -65.5t-108 -23q-53 0 -100.5 19t-83 58.5t-56.5 100t-21 143.5zM735 238v101q61 0 98.5 -0.5t61 -1.5t37.5 -2.5t28 -2.5q-5 17 -5 28t5 28
q-13 -1 -27 -2.5t-37.5 -2.5t-61 -1.5t-99.5 -0.5v82q0 45 1.5 87.5t3.5 87.5q63 0 103 -1t65.5 -3.5t41 -5t30.5 -5.5q-5 18 -5 31t5 31q-42 -2 -81 -3.5t-81 -1.5t-82 1.5t-82 3.5q2 -24 3 -48t1 -48l-2 -2q-9 12 -25.5 30.5t-46 36.5t-74 31t-107.5 13q-78 0 -144 -24
t-114 -71t-75.5 -116t-27.5 -159q0 -81 27 -145t73.5 -108.5t109.5 -67t134 -22.5q56 0 97.5 10t73 26.5t54.5 36t40 37.5l2 -2q0 -25 -1.5 -49t-3.5 -46q45 2 86.5 2h84.5h84t84 -2q-2 5 -3.5 11.5t-1.5 14.5t1.5 14.5l3.5 14.5q-24 -4 -81 -7.5t-166 -3.5q-2 49 -3.5 98
t-1.5 98z" />
    <glyph glyph-name="oe" unicode="&#x153;" horiz-adv-x="889" 
d="M655 451q39 0 63 -17t37.5 -43t18 -56t4.5 -57l-66 -2t-67 -1q-32 0 -65.5 1l-64.5 2q2 27 10.5 57.5t25 56t42 42.5t62.5 17zM653 483q-63 0 -108 -22.5t-74 -64.5q-34 46 -86 66.5t-107 20.5q-43 0 -86.5 -13.5t-78.5 -43t-56.5 -77t-21.5 -115.5t21.5 -115.5t56.5 -77
t78.5 -41.5t86.5 -12q57 0 108.5 19t86.5 67q32 -42 81.5 -64t112.5 -22q48 0 92.5 17t74.5 41l6 49l-5 3q-13 -15 -30.5 -28t-37.5 -22.5t-41 -15t-41 -5.5q-42 0 -74 14.5t-54 39t-33.5 58.5t-11.5 73v13q0 10 1 15l65.5 2t65.5 1q54 0 107 -1l107 -2q1 10 1.5 19.5
t0.5 19.5q0 42 -12.5 79t-38.5 64.5t-64.5 44t-91.5 16.5zM434 234q0 -42 -7.5 -81t-25.5 -69.5t-48 -48.5t-75 -18q-44 0 -74 18t-48 48.5t-25.5 69.5t-7.5 81t7.5 81t25.5 69.5t48 48.5t74 18q45 0 75 -18t48 -48.5t25.5 -69.5t7.5 -81z" />
    <glyph glyph-name="Scaron" unicode="&#x160;" horiz-adv-x="500" 
d="M380 898l-119 -105l-120 105h-37l123 -167h67l123 167h-37zM76 128h-12q-3 -29 -6.5 -47.5t-12.5 -41.5q26 -21 64.5 -37.5t100.5 -16.5q58 0 103.5 16.5t77 47t48 71.5t16.5 87q0 55 -23.5 88t-58.5 54t-75.5 35.5t-75.5 33t-58.5 45.5t-23.5 74q0 27 9.5 50t27 39.5
t41 25.5t51.5 9t48 -9.5t34.5 -23.5t23 -30.5t13.5 -30.5h12q6 29 12 48t15 36q-30 24 -65 35.5t-83 11.5q-50 0 -90 -14t-68.5 -39t-43.5 -59.5t-15 -76.5q0 -59 23.5 -94t58.5 -57.5t75.5 -37.5t75.5 -33t58.5 -45t23.5 -73q0 -30 -10 -56.5t-28.5 -46t-45 -31
t-59.5 -11.5q-32 0 -58 9.5t-45.5 24.5t-33 33.5t-21.5 36.5z" />
    <glyph glyph-name="scaron" unicode="&#x161;" horiz-adv-x="389" 
d="M314 726l-119 -105l-120 105h-37l123 -167h67l123 167h-37zM71 91h-12q0 -15 -6.5 -37.5t-12.5 -35.5q21 -12 52 -21t77 -9q42 0 75 12.5t56.5 35t36 50.5t12.5 57q0 42 -17.5 66t-43.5 37.5t-57 21t-57 17.5t-43.5 27.5t-17.5 49.5q0 22 8 38t20 26t27 15t30 5
q34 0 57 -19t31 -43h12q2 12 9 34t15 37q-23 8 -48.5 18t-62.5 10q-40 0 -71 -11.5t-52 -31.5t-32 -47.5t-11 -60.5q0 -42 17.5 -66t43.5 -38.5t57 -22.5t57 -18.5t43.5 -27t17.5 -47.5q0 -22 -8 -39t-21.5 -28t-31 -17t-36.5 -6q-21 0 -39.5 7t-33 17.5t-25 22.5t-15.5 22z
" />
    <glyph glyph-name="Ydieresis" unicode="&#x178;" horiz-adv-x="611" 
d="M166 809q0 -21 15 -36t36 -15t36 15t15 36t-15 36t-36 15t-36 -15t-15 -36zM363 809q0 -21 15 -36t36 -15t36 15t15 36t-15 36t-36 15t-36 -15t-15 -36zM265 279q0 -81 -1 -155t-7 -126q23 2 49 2t49 -2q-2 21 -3.5 55.5t-2.5 75t-1.5 82.5t-0.5 79q16 31 38 69.5
l51 86.5l67 107l86 132q-25 -5 -39 -5t-39 5l-43 -88.5l-48 -90.5l-50 -88l-48 -79l-98.5 175l-91.5 171q-14 -2 -27.5 -3.5t-27.5 -1.5t-27.5 1.5t-27.5 3.5l29 -47.5l42.5 -71l49.5 -83l49.5 -83l43 -72z" />
    <glyph glyph-name="Zcaron" unicode="&#x17d;" horiz-adv-x="611" 
d="M425 898l-119 -105l-120 105h-37l123 -167h67l123 167h-37zM23 12v-14q19 1 58 1.5t86.5 0.5h96.5h89h55h55t58.5 -0.5t66.5 -1.5q-5 16 -5 29q0 8 1.5 16t3.5 17q-26 -3 -70.5 -6t-94.5 -6t-100.5 -4.5t-88.5 -1.5q-20 0 -39.5 0.5t-43.5 2.5l47.5 73.5l74.5 111.5
l89 130l90.5 129l79.5 109t56 69v18q-26 -2 -53 -3.5t-54 -1.5h-143h-62t-56 1q-54 0 -92.5 1t-63.5 3q5 -18 5 -31t-5 -31q28 3 68.5 5.5l85 5t88.5 3.5t80 1q16 0 34 -0.5t36 -1.5l-39 -58.5l-61 -90l-77 -112l-86 -123l-87.5 -124.5z" />
    <glyph glyph-name="zcaron" unicode="&#x17e;" horiz-adv-x="500" 
d="M370 726l-119 -105l-120 105h-37l123 -167h67l123 167h-37zM34 9v-11q45 2 88.5 2h88.5h125t125 -2q-4 9 -4 25t4 28q-53 -5 -93 -7.5t-75 -4t-69.5 -2t-75.5 -0.5l56 75.5l82 109l92.5 122l87.5 114.5v15q-16 -1 -30.5 -2l-29.5 -2t-33 -1h-38q-94 0 -156 1t-94 4
q3 -16 3 -29q0 -14 -3 -28q28 3 71.5 5.5l85.5 5t74.5 3.5t39.5 1l-64.5 -87l-80.5 -108l-88.5 -116z" />
    <glyph glyph-name="florin" unicode="&#x192;" 
d="M55 -113l-7 -3q0 -18 -3.5 -37t-10.5 -42q35 0 69.5 10.5t66.5 46t59.5 101t47.5 177.5l39 219h58q14 0 26.5 -0.5t23.5 -1.5q0 11 3 23t7 21q-22 -1 -50.5 -3t-60.5 -2l24 143q7 44 23.5 57.5t37.5 13.5q17 0 30.5 -9t21.5 -20l12 4q0 22 3 44.5t8 37.5q-6 2 -16.5 3.5
t-16.5 1.5q-40 0 -71 -21.5t-54 -54.5t-39 -73t-25 -76l-12 -51q-29 0 -58.5 1.5t-46.5 3.5q0 -11 -3 -23t-6 -21q10 1 22.5 1.5t26.5 0.5h58l-63 -368q-5 -28 -10.5 -50t-14 -37.5t-21.5 -24t-33 -8.5q-13 0 -25 5.5t-20 10.5z" />
    <glyph glyph-name="circumflex" unicode="&#x2c6;" horiz-adv-x="333" 
d="M166 664l120 -105h37l-123 167h-67l-123 -167h37z" />
    <glyph glyph-name="caron" unicode="&#x2c7;" horiz-adv-x="333" 
d="M286 726l-119 -105l-120 105h-37l123 -167h67l123 167h-37z" />
    <glyph glyph-name="breve" unicode="&#x2d8;" horiz-adv-x="333" 
d="M58 717h-32q0 -32 9 -60.5t26.5 -50.5t44 -34.5t61.5 -12.5t61 12.5t43.5 34.5t26.5 50.5t9 60.5h-32q-12 -46 -34.5 -71t-74.5 -25q-51 0 -75.5 25t-32.5 71z" />
    <glyph glyph-name="dotaccent" unicode="&#x2d9;" horiz-adv-x="333" 
d="M116 634q0 -21 15 -36t36 -15t36 15t15 36t-15 36t-36 15t-36 -15t-15 -36z" />
    <glyph glyph-name="ring" unicode="&#x2da;" horiz-adv-x="333" 
d="M106 645q0 25 17.5 42.5t43.5 17.5q25 0 42.5 -17.5t17.5 -42.5t-17.5 -42.5t-43.5 -17.5q-25 0 -42.5 17.5t-17.5 42.5zM64 645q0 -21 8 -39.5t22 -32.5t32.5 -22t39.5 -8t40 8t33 22t22 32.5t8 39.5t-8 39.5t-22 32.5t-32.5 22t-39.5 8t-40 -8t-33 -22t-22 -32.5
t-8 -39.5z" />
    <glyph glyph-name="ogonek" unicode="&#x2db;" horiz-adv-x="333" 
d="M265 0h-40q-112 -80 -112 -136q0 -21 9.5 -37t25.5 -26.5t36.5 -16t42.5 -5.5q38 0 58 10l-11 33q-7 -2 -15 -4t-16 -2q-25 0 -46.5 13t-21.5 46q0 10 3 22t13 27t27.5 34t46.5 42z" />
    <glyph glyph-name="tilde" unicode="&#x2dc;" horiz-adv-x="333" 
d="M2 584h30q9 26 19.5 36t33.5 10q12 0 25.5 -4.5t39.5 -18.5q23 -13 40.5 -18t31.5 -5q30 0 50 12t32.5 29.5t18.5 35.5t8 30h-29q-6 -20 -20 -35t-37 -15q-13 0 -25.5 4.5t-40.5 18.5q-28 13 -42 18t-31 5q-24 0 -42 -9.5t-31 -24.5t-20.5 -33t-10.5 -36z" />
    <glyph glyph-name="hungarumlaut" unicode="&#x2dd;" horiz-adv-x="333" 
d="M344 708l-147 -149h42l147 94q12 8 24 18.5t12 28.5q0 16 -11.5 24t-21.5 8q-21 0 -45 -24zM144 708l-144 -149h39l147 94q12 8 24 18.5t12 28.5q0 16 -11.5 24t-21.5 8q-21 0 -45 -24z" />
    <glyph glyph-name="gravecmb" unicode="&#x300;" horiz-adv-x="0" 
d="M-284 653l147 -94h42l-147 149q-24 24 -45 24q-10 0 -21.5 -8t-11.5 -24q0 -18 12 -28.5t24 -18.5z" />
    <glyph glyph-name="acutecmb" unicode="&#x301;" horiz-adv-x="0" 
d="M-85 708l-147 -149h42l147 94q12 8 24 18.5t12 28.5q0 16 -11.5 24t-21.5 8q-21 0 -45 -24z" />
    <glyph glyph-name="circumflexcmb" unicode="&#x302;" horiz-adv-x="0" 
d="M-164 664l120 -105h37l-123 167h-67l-123 -167h37z" />
    <glyph glyph-name="tildecmb" unicode="&#x303;" horiz-adv-x="0" 
d="M-328 584h30q9 26 19.5 36t33.5 10q12 0 25.5 -4.5t39.5 -18.5q23 -13 40.5 -18t31.5 -5q30 0 50 12t32.5 29.5t18.5 35.5t8 30h-29q-6 -20 -20 -35t-37 -15q-13 0 -25.5 4.5t-40.5 18.5q-28 13 -42 18t-31 5q-24 0 -42 -9.5t-31 -24.5t-20.5 -33t-10.5 -36z" />
    <glyph glyph-name="macroncmb" unicode="&#x304;" horiz-adv-x="0" 
d="M-300 656v-52h273v52h-273z" />
    <glyph glyph-name="brevecmb" unicode="&#x306;" horiz-adv-x="0" 
d="M-272 717h-32q0 -32 9 -60.5t26.5 -50.5t44 -34.5t61.5 -12.5t61 12.5t43.5 34.5t26.5 50.5t9 60.5h-32q-12 -46 -34.5 -71t-74.5 -25q-51 0 -75.5 25t-32.5 71z" />
    <glyph glyph-name="dotaccentcmb" unicode="&#x307;" horiz-adv-x="0" 
d="M-214 634q0 -21 15 -36t36 -15t36 15t15 36t-15 36t-36 15t-36 -15t-15 -36z" />
    <glyph glyph-name="dieresiscmb" unicode="&#x308;" horiz-adv-x="0" 
d="M-313 637q0 -21 15 -36t36 -15t36 15t15 36t-15 36t-36 15t-36 -15t-15 -36zM-116 637q0 -21 15 -36t36 -15t36 15t15 36t-15 36t-36 15t-36 -15t-15 -36z" />
    <glyph glyph-name="ringcmb" unicode="&#x30a;" horiz-adv-x="0" 
d="M-224 645q0 25 17.5 42.5t43.5 17.5q25 0 42.5 -17.5t17.5 -42.5t-17.5 -42.5t-43.5 -17.5q-25 0 -42.5 17.5t-17.5 42.5zM-266 645q0 -21 8 -39.5t22 -32.5t32.5 -22t39.5 -8t40 8t33 22t22 32.5t8 39.5t-8 39.5t-22 32.5t-32.5 22t-39.5 8t-40 -8t-33 -22t-22 -32.5
t-8 -39.5z" />
    <glyph glyph-name="hungarumlautcmb" unicode="&#x30b;" horiz-adv-x="0" 
d="M14 708l-147 -149h42l147 94q12 8 24 18.5t12 28.5q0 16 -11.5 24t-21.5 8q-21 0 -45 -24zM-186 708l-144 -149h39l147 94q12 8 24 18.5t12 28.5q0 16 -11.5 24t-21.5 8q-21 0 -45 -24z" />
    <glyph glyph-name="caroncmb" unicode="&#x30c;" horiz-adv-x="0" 
d="M-44 726l-119 -105l-120 105h-37l123 -167h67l123 167h-37z" />
    <glyph glyph-name="cedillacmb" unicode="&#x327;" horiz-adv-x="0" 
d="M-287 -172l-14 -32q14 -5 36 -11t53 -6q24 0 45.5 5.5t38 16t26 26.5t9.5 37q0 32 -22 51.5t-61 19.5q-10 0 -16.5 -1.5t-12.5 -3.5l25 70h-35l-41 -102l7 -7q10 7 43 7q21 0 36 -9t15 -31q0 -20 -17.5 -31t-42.5 -11q-23 0 -42 3.5t-30 8.5z" />
    <glyph glyph-name="ogonekcmb" unicode="&#x328;" horiz-adv-x="0" 
d="M-65 0h-40q-112 -80 -112 -136q0 -21 9.5 -37t25.5 -26.5t36.5 -16t42.5 -5.5q38 0 58 10l-11 33q-7 -2 -15 -4t-16 -2q-25 0 -46.5 13t-21.5 46q0 10 3 22t13 27t27.5 34t46.5 42z" />
    <glyph glyph-name="soliduslongoverlaycmb" unicode="&#x338;" horiz-adv-x="0" 
d="M-24 703l-273 -723q17 5 23 5q9 0 26 -5l276 723q-17 -5 -26 -5t-26 5z" />
    <glyph glyph-name="Omegagreek" unicode="&#x3a9;" horiz-adv-x="768" 
d="M330 0l-15 142q-44 15 -66 37q-36 31 -55.5 85t-19.5 126q0 125 63 195q50 56 150 56q96 0 152 -63t56 -189q0 -112 -51 -183q-31 -42 -90 -64l-16 -142h296v163h-17q-5 -19 -10 -31t-12.5 -18.5t-19 -8.5t-29.5 -2h-148v14q77 23 121 57.5t69 93.5q26 61 26 120
q0 76 -40 143q-38 69 -115 107q-73 37 -175 37q-100 0 -175.5 -37.5t-115.5 -106.5q-39 -69 -39 -143q0 -62 25.5 -120t69.5 -94q44 -35 122 -57v-14h-148q-18 0 -29.5 2t-19 8.5t-13 18.5t-10.5 31h-16v-163h295z" />
    <glyph glyph-name="pi" unicode="&#x3c0;" horiz-adv-x="505" 
d="M485 447h-312q-63 0 -84 -10q-23 -10 -46 -44q-22 -34 -37 -86h18q19 33 40 51t61 18h34q-5 -61 -12 -105.5t-17 -72.5q-10 -29 -24.5 -55.5t-33.5 -52.5q-26 -35 -26 -56t15.5 -32.5t37.5 -11.5q31 0 47 20q18 24 32 106q7 42 13.5 105.5t11.5 154.5h103l-13 -141
q-5 -55 -7.5 -91t-2.5 -53q0 -52 26 -76.5t69 -24.5q91 0 108 132h-17q-9 -59 -56 -59q-21 0 -38 15q-16 15 -16 83q0 28 3 67l10 148h113v71z" />
    <glyph glyph-name="endash" unicode="&#x2013;" horiz-adv-x="500" 
d="M0 254v-47h500v47h-500z" />
    <glyph glyph-name="emdash" unicode="&#x2014;" horiz-adv-x="1000" 
d="M0 254v-47h1000v47h-1000z" />
    <glyph glyph-name="quoteleft" unicode="&#x2018;" horiz-adv-x="278" 
d="M151 448l77 243l-18 7l-125 -212l-10 -20t-5 -22q0 -18 12.5 -26t24.5 -8q20 0 30 12.5t14 25.5z" />
    <glyph glyph-name="quoteright" unicode="&#x2019;" horiz-adv-x="278" 
d="M127 660l-77 -243l18 -7l125 212l10 20t5 22q0 18 -12.5 26t-24.5 8q-20 0 -30 -12.5t-14 -25.5z" />
    <glyph glyph-name="quotesinglbase" unicode="&#x201a;" horiz-adv-x="278" 
d="M107 75l-77 -240l18 -7l125 209l10 20t5 22q0 18 -12.5 26t-24.5 8q-20 0 -30 -12.5t-14 -25.5z" />
    <glyph glyph-name="quotedblleft" unicode="&#x201c;" horiz-adv-x="444" 
d="M145 448l77 243l-18 7l-125 -212l-10 -20t-5 -22q0 -18 12.5 -26t24.5 -8q20 0 30 12.5t14 25.5zM317 448l77 243l-18 7l-125 -212l-10 -20t-5 -22q0 -18 12.5 -26t24.5 -8q20 0 30 12.5t14 25.5z" />
    <glyph glyph-name="quotedblright" unicode="&#x201d;" horiz-adv-x="444" 
d="M127 660l-77 -243l18 -7l125 212l10 20t5 22q0 18 -12.5 26t-24.5 8q-20 0 -30 -12.5t-14 -25.5zM299 660l-77 -243l18 -7l125 212l10 20t5 22q0 18 -12.5 26t-24.5 8q-20 0 -30 -12.5t-14 -25.5z" />
    <glyph glyph-name="quotedblbase" unicode="&#x201e;" horiz-adv-x="444" 
d="M127 75l-77 -240l18 -7l125 209l10 20t5 22q0 18 -12.5 26t-24.5 8q-20 0 -30 -12.5t-14 -25.5zM299 75l-77 -240l18 -7l125 209l10 20t5 22q0 18 -12.5 26t-24.5 8q-20 0 -30 -12.5t-14 -25.5z" />
    <glyph glyph-name="dagger" unicode="&#x2020;" horiz-adv-x="500" 
d="M216 449q-45 0 -87 1t-87 7q5 -22 5 -37q0 -14 -5 -36q45 6 87 7t87 1q0 -100 -3 -198t-5 -196q20 2 42 2t42 -2q-2 98 -5 196t-3 198q45 0 87 -1t87 -7q-5 22 -5 36q0 15 5 37q-45 -6 -87 -7t-87 -1v64q0 51 2 99.5t6 72.5q-25 -5 -42 -5t-42 5q2 -12 3.5 -31t2.5 -41.5
t1.5 -48t0.5 -51.5v-64z" />
    <glyph glyph-name="daggerdbl" unicode="&#x2021;" horiz-adv-x="500" 
d="M219 340q0 -26 -1 -50.5t-1 -50.5q-45 0 -87.5 1t-87.5 7q5 -22 5 -37q0 -14 -5 -36q45 6 87 7t87 1q0 -30 -1 -72.5t-7 -111.5q20 2 42 2t42 -2q-6 69 -7 111.5t-1 72.5q45 0 87 -1t87 -7q-5 22 -5 36q0 15 5 37q-45 -6 -87.5 -7t-87.5 -1q0 26 -1 50.5t-1 50.5t1 50.5
t1 50.5q45 0 87.5 -1t87.5 -7q-5 22 -5 36q0 15 5 37q-45 -6 -87 -7t-87 -1q0 30 1 72.5t7 114.5q-25 -5 -42 -5t-42 5q6 -72 7 -114.5t1 -72.5q-45 0 -87 1t-87 7q5 -22 5 -37q0 -14 -5 -36q45 6 87.5 7t87.5 1q0 -26 1 -50.5t1 -50.5z" />
    <glyph glyph-name="bullet" unicode="&#x2022;" horiz-adv-x="606" 
d="M133 340q0 -35 13.5 -66t36.5 -54t54 -36.5t66 -13.5t66 13.5t54 36.5t36.5 54t13.5 66t-13.5 66t-36.5 54t-54 36.5t-66 13.5t-66 -13.5t-54 -36.5t-36.5 -54t-13.5 -66z" />
    <glyph glyph-name="ellipsis" unicode="&#x2026;" horiz-adv-x="1000" 
d="M776 45q0 -23 17 -38.5t40 -15.5t40 15.5t17 38.5t-17 40t-40 17t-40 -17t-17 -40zM443 45q0 -23 17 -38.5t40 -15.5t40 15.5t17 38.5t-17 40t-40 17t-40 -17t-17 -40zM110 45q0 -23 17 -38.5t40 -15.5t40 15.5t17 38.5t-17 40t-40 17t-40 -17t-17 -40z" />
    <glyph glyph-name="perthousand" unicode="&#x2030;" horiz-adv-x="1000" 
d="M509 695l-388 -731q15 5 24 5q8 0 23 -5l388 731q-15 -5 -23 -5q-9 0 -24 5zM101 512q0 60 15 98t57 38t57 -38t15 -98t-15 -98t-57 -38t-57 38t-15 98zM33 512q0 -46 13 -77t33.5 -49.5t45.5 -26t48 -7.5t48 7.5t45.5 26t33.5 49.5t13 77q0 47 -13 77.5t-33.5 49
t-45.5 26t-48 7.5t-48 -7.5t-45.5 -26t-33.5 -49t-13 -77.5zM755 144q0 60 15 98t57 38t57 -38t15 -98t-15 -98t-57 -38t-57 38t-15 98zM687 144q0 -46 13 -77t33.5 -49t45.5 -24.5t48 -6.5t48 6.5t45.5 24.5t33.5 49t13 77q0 47 -13 77.5t-33.5 49t-45.5 26t-48 7.5
t-48 -7.5t-45.5 -26t-33.5 -49t-13 -77.5zM431 144q0 60 15 98t57 38t57 -38t15 -98t-15 -98t-57 -38t-57 38t-15 98zM363 144q0 -46 13 -77t33.5 -49t45.5 -24.5t48 -6.5t48 6.5t45.5 24.5t33.5 49t13 77q0 47 -13 77.5t-33.5 49t-45.5 26t-48 7.5t-48 -7.5t-45.5 -26
t-33.5 -49t-13 -77.5z" />
    <glyph glyph-name="guilsinglleft" unicode="&#x2039;" horiz-adv-x="333" 
d="M211 419l-126 -187l120 -191q4 9 15 16.5t23 9.5l-106 166l111 159q-12 2 -22 9.5t-15 17.5z" />
    <glyph glyph-name="guilsinglright" unicode="&#x203a;" horiz-adv-x="333" 
d="M90 397l106 -166l-111 -159q12 -2 22 -9.5t15 -17.5l126 187l-120 191q-4 -9 -15 -16.5t-23 -9.5z" />
    <glyph glyph-name="fraction" unicode="&#x2044;" horiz-adv-x="167" 
d="M199 684l-274 -709q15 5 23 5t23 -5l274 709q-15 -5 -23 -5t-23 5z" />
    <glyph glyph-name="Euro" unicode="&#x20ac;" 
d="M548 622q-35 21 -83 35.5t-92 14.5q-51 0 -96 -20.5t-80.5 -56t-60.5 -84t-36 -105.5q-23 1 -39 2t-24 3q-4 -31 -15 -57q23 5 72 6q-1 -10 -1.5 -20t-0.5 -21v-20q-20 1 -33.5 2t-21.5 3q-4 -31 -15 -57q23 5 74 6q8 -63 30 -112.5t56 -83.5t77.5 -50.5t94.5 -16.5
q23 0 47.5 3.5t47.5 9.5t42.5 15t31.5 20q3 31 9 58l-8 12q-35 -38 -75 -57.5t-80 -19.5q-69 0 -119 58.5t-62 163.5h133q24 0 50 -1t47 -5q2 11 6.5 29t9.5 28q-23 -5 -51 -5.5t-56 -0.5h-142v8q0 14 0.5 27.5t1.5 26.5h164q24 0 50 -1t47 -5q2 11 6.5 29t9.5 28
q-23 -5 -51 -5.5t-56 -0.5h-166q16 114 65 169t114 55q37 0 76.5 -22.5t63.5 -64.5l15 1l10 39.5t13 39.5z" />
    <glyph glyph-name="trademark" unicode="&#x2122;" horiz-adv-x="950" 
d="M159 653v-149q0 -81 -1.5 -135t-3.5 -94q18 5 31 5t31 -5q-2 60 -3.5 118.5t-1.5 118.5v141q32 0 64.5 -1.5t64.5 -3.5q-5 12 -5 19q0 6 5 18q-39 -2 -77.5 -3.5t-77.5 -1.5t-77.5 1.5t-77.5 3.5q5 -12 5 -18q0 -7 -5 -19q32 2 64.5 3.5t64.5 1.5zM650 460l-51 -90h-2
l-52 92l-62.5 116t-55.5 113h-10l-19 -144l-20.5 -141.5t-23.5 -130.5q15 5 24 5q8 0 23 -5q1 48 4.5 95.5t9.5 95.5l13 111h2l48 -91l55 -102.5t50 -101.5h8q8 19 20.5 46l27.5 57l32 61.5l33 59.5l42 76h2l14 -108q8 -60 10.5 -108.5l4.5 -90.5l14.5 3.5t14.5 1.5
q11 0 28 -5q-5 30 -10 66l-10 74.5l-9.5 76.5t-7.5 72l-12 127h-8l-63 -116z" />
    <glyph glyph-name="Omega" unicode="&#x2126;" horiz-adv-x="768" 
d="M330 0l-15 142q-44 15 -66 37q-36 31 -55.5 85t-19.5 126q0 125 63 195q50 56 150 56q96 0 152 -63t56 -189q0 -112 -51 -183q-31 -42 -90 -64l-16 -142h296v163h-17q-5 -19 -10 -31t-12.5 -18.5t-19 -8.5t-29.5 -2h-148v14q77 23 121 57.5t69 93.5q26 61 26 120
q0 76 -40 143q-38 69 -115 107q-73 37 -175 37q-100 0 -175.5 -37.5t-115.5 -106.5q-39 -69 -39 -143q0 -62 25.5 -120t69.5 -94q44 -35 122 -57v-14h-148q-18 0 -29.5 2t-19 8.5t-13 18.5t-10.5 31h-16v-163h295z" />
    <glyph glyph-name="partialdiff" unicode="&#x2202;" horiz-adv-x="494" 
d="M454 350q-13 27 -27 41q-21 22 -53.5 37t-72.5 15q-57 0 -113 -29q-30 -15 -58.5 -42t-50 -62t-35 -76.5t-13.5 -85.5q0 -75 45 -117.5t121 -42.5q129 0 214 151q75 137 75 310q1 68 -14.5 114.5t-41 75t-58 41.5t-65.5 14q-61 0 -104.5 -34.5t-81.5 -112.5h23
q26 39 60.5 58.5t86.5 19.5q76 0 122 -48t46 -136q0 -18 -1.5 -40.5zM445 307q-34 -151 -113 -231q-63 -63 -123 -63q-42 0 -68.5 30t-26.5 85q0 78 31 152q31 76 73 106q43 31 87 31q46 0 83.5 -28t56.5 -82z" />
    <glyph glyph-name="Delta" unicode="&#x2206;" horiz-adv-x="612" 
d="M599 0l-280 677l-306 -677h586zM483 40h-409l215 472z" />
    <glyph glyph-name="product" unicode="&#x220f;" horiz-adv-x="823" 
d="M605 655v-773q0 -42 -18 -59t-61 -17h-17v-18h292v18h-17q-43 0 -61 17t-18 59v718q0 40 18 57.5t61 17.5h17v18h-779v-18h18q43 0 61 -17.5t18 -57.5v-718q0 -42 -18 -59t-61 -17h-18v-18h292v18h-18q-43 0 -61 17t-18 59v773h388z" />
    <glyph glyph-name="summation" unicode="&#x2211;" horiz-adv-x="713" 
d="M662 -212l31 202l-19 4q-12 -51 -30.5 -74.5t-46.5 -32.5q-38 -13 -75 -13h-399l307 410l-274 370h361q54 0 84 -29t38 -96h19l-13 164h-624v-18l327 -433l-327 -436v-18h641z" />
    <glyph glyph-name="minus" unicode="&#x2212;" horiz-adv-x="606" 
d="M50 279v-52h506v52h-506z" />
    <glyph glyph-name="radical" unicode="&#x221a;" horiz-adv-x="549" 
d="M512 913l-127 -794l-198 402l-146 -74l16 -31l97 44l242 -496l152 949h-36z" />
    <glyph glyph-name="infinity" unicode="&#x221e;" horiz-adv-x="713" 
d="M319 326q-38 68 -69 89q-31 22 -74 22q-60 0 -105 -49t-45 -130t49 -130q48 -50 118 -50q53 0 90 26.5t69 87.5q47 -81 74 -104q42 -36 90 -36q66 0 118 58q53 59 53 147q0 92 -54 147q-55 57 -133 57q-68 0 -109 -30q-39 -28 -72 -105zM366 227q37 99 51 124
q20 38 45 55t59 17q53 0 95 -47q43 -46 43 -119q0 -36 -11 -65.5t-29.5 -50t-44.5 -32t-56 -11.5q-22 0 -42 5.5t-38.5 20t-36 39.5t-35.5 64zM305 288q-35 -103 -58 -130q-36 -42 -82 -42q-43 0 -78 39q-34 37 -34 104q0 30 9.5 55t25.5 42.5t38.5 27t47.5 9.5
q45 0 76 -25.5t55 -79.5z" />
    <glyph glyph-name="integral" unicode="&#x222b;" horiz-adv-x="274" 
d="M106 721l-8 -284q0 -93 6 -215q5 -94 12 -165l3.5 -33.5t1.5 -23.5q0 -28 -19 -28q-10 0 -25 16q-14 12 -33 12t-31.5 -11.5t-12.5 -33.5q0 -26 16 -42.5t42 -16.5q40 0 65 33q39 50 44 191q4 129 6 200t2 88q0 123 -18 324q-2 26 -3.5 43.5t-1.5 27.5q0 17 6 24t14 7
q9 0 19 -10q20 -17 38 -17q19 0 31.5 13.5t12.5 36.5q0 20 -18 36.5t-43 16.5q-22 0 -45 -16t-36 -49q-10 -24 -16.5 -55t-8.5 -69z" />
    <glyph glyph-name="approxequal" unicode="&#x2248;" horiz-adv-x="549" 
d="M535 507h-21q-5 -45 -30 -68t-62 -23q-18 0 -32 3q-14 4 -33 11t-44 18q-46 20 -81 33t-61 20q-20 7 -43 7q-21 -1 -41.5 -10t-36.5 -26t-25.5 -41t-9.5 -56h21q9 46 32.5 67.5t57.5 21.5t108 -31l87.5 -35t46.5 -17q22 -7 49 -7q48 0 82 35t36 98zM535 267h-21
q-5 -45 -30 -68t-62 -23q-21 0 -32 4q-14 4 -33.5 10.5t-43.5 17.5q-94 40 -142 54q-22 6 -44 6q-22 -1 -42 -10t-35.5 -25.5t-25 -41t-9.5 -57.5h21q9 48 32.5 69t57.5 21t108 -31l109 -45q51 -15 74 -15q48 0 82 35.5t36 98.5z" />
    <glyph glyph-name="notequal" unicode="&#x2260;" horiz-adv-x="549" 
d="M12 399v-45h278l-71 -181h-207v-46h189l-102 -256h39l103 256h296v46h-278l70 181h208v45h-190l101 261h-39l-103 -261h-294z" />
    <glyph glyph-name="lessequal" unicode="&#x2264;" horiz-adv-x="549" 
d="M536 120v50l-464 193l464 192v50l-524 -222v-40zM12 -32v-45h525v45h-525z" />
    <glyph glyph-name="greaterequal" unicode="&#x2265;" horiz-adv-x="549" 
d="M12 605v-50l464 -193l-464 -192v-50l524 222v40zM12 -32v-45h525v45h-525z" />
    <glyph glyph-name="lozenge" unicode="&#x25ca;" horiz-adv-x="494" 
d="M268 694h-54l-191 -348l191 -346h54l204 346zM242 647l175 -301l-175 -300l-166 300z" />
    <glyph glyph-name="apple" unicode="&#xf8ff;" horiz-adv-x="790" 
d="M408 588q-16 0 -69 15q-52 15 -89 15q-86 0 -143 -72q-56 -73 -56 -187q0 -124 74 -252q74 -127 150 -127q24 0 66 17q39 14 72 14q32 0 75 -13q44 -16 71 -16q65 0 129 95q21 32 36 63.5t25 61.5q-45 14 -79 63q-35 50 -35 112q0 57 33 103q18 26 57 60q-13 16 -26 28
t-26 22q-47 32 -107 32q-36 0 -87 -17t-71 -17zM561 790q0 4 -0.5 9t-2.5 12q-88 -20 -125.5 -74.5t-38.5 -128.5q32 3 51 8q26 9 55 36q31 32 46 69t15 69z" />
    </font>
</defs>
</svg>
